<svg width="28" height="20" viewBox="0 0 28 20" fill="none" xmlns="http://www.w3.org/2000/svg">
<rect x="0.25" y="0.25" width="27.5" height="19.5" rx="1.75" fill="white" stroke="#F5F5F5" stroke-width="0.5"/>
<mask id="mask0_2122_393" style="mask-type:luminance" maskUnits="userSpaceOnUse" x="0" y="0" width="28" height="20">
<rect x="0.25" y="0.25" width="27.5" height="19.5" rx="1.75" fill="white" stroke="white" stroke-width="0.5"/>
</mask>
<g mask="url(#mask0_2122_393)">
<path d="M28 19.9998H0V18.6667H28V19.9998ZM28 13.3337V15.9998H0V13.3337H28ZM13.333 7.99976H28V10.6667H13.333V7.99976ZM13.333 2.66675H28V5.33374H13.333V2.66675Z" fill="#0E4DC5"/>
<path d="M7.78198 4.43359L9.16089 3.62305L8.67651 5.14746L10.2703 5.01465L9.17358 6.17773L10.6667 6.75L9.17358 7.32227L10.2703 8.48535L8.67651 8.35352L9.16089 9.87793L7.78198 9.06641L7.5564 10.6504L6.66675 9.32129L5.7771 10.6504L5.55151 9.06641L4.17261 9.87793L4.65698 8.35352L3.06323 8.48535L4.15991 7.32227L2.66675 6.75L4.15991 6.17773L3.06323 5.01465L4.65698 5.14746L4.17261 3.62305L5.55151 4.43359L5.7771 2.85059L6.66675 4.17969L7.5564 2.85059L7.78198 4.43359ZM6.66675 4.20508C5.26103 4.20508 4.12101 5.34432 4.12085 6.75C4.12085 8.15582 5.26093 9.2959 6.66675 9.2959C8.07256 9.2959 9.21265 8.15582 9.21265 6.75C9.21249 5.34432 8.07246 4.20508 6.66675 4.20508ZM6.66675 4.66699C7.77132 4.66699 8.66675 5.56242 8.66675 6.66699C8.6666 7.77144 7.77123 8.66699 6.66675 8.66699C5.56227 8.66699 4.66689 7.77144 4.66675 6.66699C4.66675 5.56242 5.56218 4.66699 6.66675 4.66699Z" fill="#FED443"/>
</g>
</svg>
