<svg width="103" height="143" viewBox="0 0 103 143" fill="none" xmlns="http://www.w3.org/2000/svg">
<rect x="2.25" y="2.25" width="97.7175" height="138.496" rx="6.5" fill="#FFE600" stroke="white" stroke-width="3"/>
<rect x="0.75" y="0.75" width="100.718" height="141.496" rx="8" stroke="#333333" stroke-width="1.5"/>
<rect x="13.3516" y="16.4595" width="75.065" height="33.8081" rx="3" fill="white" stroke="#333333" stroke-width="1.5"/>
<rect x="69.0159" y="26.1982" width="8.03422" height="14.3284" rx="4.01711" fill="white" stroke="#333333" stroke-width="1.5"/>
<rect x="54.25" y="26.1982" width="8.03422" height="14.3284" rx="4.01711" fill="white" stroke="#333333" stroke-width="1.5"/>
<rect x="39.4844" y="26.1982" width="8.03422" height="14.3284" rx="4.01711" fill="white" stroke="#333333" stroke-width="1.5"/>
<path d="M32.752 33.3618H24.7178" stroke="#333333" stroke-width="1.5"/>
<path d="M28.7349 37.3792L28.7349 29.345" stroke="#333333" stroke-width="1.5"/>
<ellipse cx="21.2346" cy="70.6472" rx="7.50024" ry="7.47167" fill="white" stroke="#333333" stroke-width="1.5"/>
<ellipse cx="21.2346" cy="94.1802" rx="7.50024" ry="7.47167" fill="white" stroke="#333333" stroke-width="1.5"/>
<ellipse cx="21.2346" cy="117.795" rx="7.50024" ry="7.47167" fill="white" stroke="#333333" stroke-width="1.5"/>
<ellipse cx="51.207" cy="70.6472" rx="7.50024" ry="7.47167" fill="white" stroke="#333333" stroke-width="1.5"/>
<ellipse cx="51.207" cy="94.1802" rx="7.50024" ry="7.47167" fill="white" stroke="#333333" stroke-width="1.5"/>
<ellipse cx="51.207" cy="117.795" rx="7.50024" ry="7.47167" fill="white" stroke="#333333" stroke-width="1.5"/>
<ellipse cx="80.5332" cy="70.6472" rx="7.50024" ry="7.47167" fill="white" stroke="#333333" stroke-width="1.5"/>
<rect x="73.6909" y="86.4651" width="13.6932" height="38.7974" rx="6.8466" fill="white" stroke="#333333" stroke-width="1.5"/>
</svg>
