<svg width="150" height="38" viewBox="0 0 150 38" fill="none" xmlns="http://www.w3.org/2000/svg">
<g clip-path="url(#clip0_2067_754)">
<path d="M55.0838 17.9617C55.0838 8.05292 42.7462 0.0246582 27.5419 0.0246582C12.3376 0.0246582 0 8.08907 0 17.9617V19.0104C0 29.4978 10.7773 37.9961 27.5419 37.9961C44.4153 37.9961 55.0838 29.4978 55.0838 19.0104V17.9617Z" fill="#2D3277"/>
<path d="M54.0294 17.9593C54.0294 27.2533 42.1635 34.8476 27.5398 34.8476C12.9162 34.8476 1.05029 27.2895 1.05029 17.9593C1.05029 8.6292 12.9162 1.07104 27.5398 1.07104C42.1635 1.07104 54.0294 8.6292 54.0294 17.9593Z" fill="#F7D032"/>
<path d="M18.7427 12.6134C18.7427 12.6495 18.4524 12.9027 18.6339 13.1196C19.0693 13.6621 20.3393 13.9514 21.6457 13.6621C22.4077 13.4813 23.4237 12.6857 24.3672 11.9263C25.4195 11.0945 26.4356 10.2627 27.4879 9.93728C28.5765 9.57564 29.3023 9.72031 29.774 9.86494C30.282 10.0096 30.8989 10.3351 31.8423 11.0583C33.6567 12.4325 40.9504 18.7611 42.1842 19.846C43.2002 19.3759 47.6996 17.4592 53.8325 16.1212C53.288 12.8665 51.3283 9.90109 48.3167 7.44198C44.1073 9.21399 38.9909 10.1181 33.9833 7.659C33.947 7.659 31.2255 6.35708 28.5765 6.42942C24.5849 6.53791 22.8794 8.23762 21.0651 10.0458L18.7427 12.6134Z" fill="white"/>
<path d="M41.9346 20.6111C41.862 20.5388 33.3709 13.1253 31.4477 11.7149C30.3228 10.8832 29.7059 10.6662 29.0527 10.5938C28.7261 10.5577 28.2544 10.63 27.9278 10.7023C27.0206 10.9555 25.8594 11.7149 24.8434 12.5467C23.7548 13.4146 22.7387 14.2102 21.8316 14.4272C20.6341 14.6803 19.1463 14.391 18.4932 13.9209C18.2392 13.7401 18.0215 13.5231 17.9489 13.3061C17.6948 12.7275 18.1666 12.2935 18.2392 12.185L20.5615 9.65362C20.8518 9.36431 21.1059 9.11115 21.3961 8.85803C20.6341 8.96651 19.9447 9.14734 19.2552 9.32812C18.4206 9.58128 17.586 9.79825 16.7514 9.79825C16.3886 9.79825 14.5742 9.50894 14.2113 9.40046C12.1067 8.82184 10.2197 8.24322 7.46193 6.97754C4.12351 9.4366 1.91 12.5467 1.25684 15.946C1.72857 16.0907 2.4906 16.3077 2.81718 16.38C10.3649 18.0435 12.6873 19.7793 13.1227 20.141C13.5944 19.6347 14.2476 19.3092 14.9733 19.3092C15.808 19.3092 16.57 19.7432 17.0054 20.3579C17.4409 20.0325 18.0215 19.7432 18.7835 19.7432C19.1463 19.7432 19.5092 19.8155 19.8721 19.924C20.7067 20.2133 21.1784 20.7919 21.3961 21.2982C21.6864 21.1535 22.0493 21.0812 22.4485 21.0812C22.8476 21.0812 23.2831 21.1897 23.6822 21.3705C25.0611 21.9491 25.2789 23.3233 25.17 24.3359H25.4603C27.0932 24.3359 28.4358 25.674 28.4358 27.3013C28.4358 27.8076 28.2907 28.2777 28.0729 28.7117C28.5084 28.9648 29.6696 29.5434 30.6493 29.3988C31.4477 29.2903 31.7379 29.0371 31.8468 28.8563C31.9194 28.7478 31.992 28.6393 31.9194 28.5309L29.7785 26.1802C29.7785 26.1802 29.4156 25.8548 29.5607 25.7101C29.6696 25.5655 29.8873 25.7824 30.0324 25.8909C31.1211 26.795 32.4274 28.1331 32.4274 28.1331C32.4637 28.1331 32.5363 28.3139 33.008 28.4224C33.4435 28.4947 34.1692 28.4585 34.6772 28.0246C34.8223 27.9161 34.9312 27.7714 35.0401 27.6629L35.0038 27.6991C35.5481 27.012 34.9312 26.2887 34.9312 26.2887L32.4637 23.5042C32.4637 23.5042 32.1008 23.1787 32.246 23.034C32.3548 22.9255 32.5725 23.1064 32.754 23.2148C33.6974 23.8296 34.7861 24.9507 35.8747 25.9994C36.0924 26.1441 37.0359 26.7227 38.2696 25.9271C39.0317 25.4208 39.1768 24.8422 39.1405 24.3721C39.1042 23.7573 38.6325 23.3233 38.6325 23.3233L35.2578 19.924C35.2578 19.924 34.8949 19.6347 35.0401 19.4539C35.1489 19.3092 35.3667 19.5262 35.5118 19.6347C36.6004 20.5388 39.5034 23.2148 39.5034 23.2148C39.5397 23.251 40.5557 23.9743 41.7895 23.1787C42.2249 22.8894 42.5152 22.4554 42.5515 21.9853C42.5515 21.1174 41.9346 20.6111 41.9346 20.6111Z" fill="white"/>
<path d="M25.5139 24.9139C25.0059 24.9139 24.4253 25.2032 24.3527 25.1671C24.3164 25.1309 24.389 24.9139 24.4253 24.8054C24.4615 24.6969 25.151 22.5995 23.4818 21.8762C22.1754 21.3338 21.4134 21.9485 21.1231 22.2378C21.0506 22.3102 21.0143 22.3102 21.0143 22.2017C20.978 21.84 20.8328 20.8275 19.7079 20.4658C18.1113 19.9957 17.0953 21.0806 16.8413 21.4784C16.7324 20.5743 15.9704 19.8872 15.0269 19.8872C14.0109 19.8872 13.1763 20.719 13.1763 21.7316C13.1763 22.7441 14.0109 23.5759 15.0269 23.5759C15.5349 23.5759 15.9704 23.3951 16.297 23.0696V23.1419C16.2244 23.5759 16.0792 25.2394 17.821 25.9265C18.5105 26.1796 19.1273 25.9988 19.5991 25.6372C19.7442 25.5287 19.7805 25.5649 19.7442 25.7095C19.6716 26.1435 19.7442 27.0476 21.0506 27.5538C22.0303 27.9516 22.6109 27.5538 22.9738 27.1922C23.1552 27.0476 23.1915 27.0837 23.1915 27.3007C23.2278 28.5664 24.2801 29.5428 25.5139 29.5428C26.7839 29.5428 27.8362 28.4941 27.8362 27.2284C27.8362 25.9265 26.7839 24.9139 25.5139 24.9139Z" fill="white"/>
<path d="M25.5136 29.3708C24.3524 29.3708 23.409 28.4667 23.3727 27.3095C23.3727 27.201 23.3727 26.9478 23.155 26.9478C23.0461 26.9478 22.9735 27.0202 22.901 27.0925C22.6469 27.3456 22.3203 27.5626 21.8486 27.5626C21.6309 27.5626 21.4132 27.5265 21.1592 27.418C19.9254 26.9117 19.9254 26.0799 19.9617 25.7545C19.9617 25.646 19.9617 25.5736 19.9254 25.5013L19.8528 25.429H19.7077C19.6351 25.429 19.5625 25.4651 19.49 25.5013C19.1271 25.7545 18.8005 25.8629 18.4377 25.8629C18.2562 25.8629 18.0385 25.8268 17.8571 25.7545C16.2241 25.1397 16.3693 23.6208 16.4419 23.1507C16.4419 23.0422 16.4419 22.9699 16.3693 22.9337L16.2604 22.8252L16.1516 22.9337C15.825 23.223 15.4258 23.4038 14.9904 23.4038C14.0469 23.4038 13.3212 22.6444 13.3212 21.7403C13.3212 20.8001 14.0832 20.0768 14.9904 20.0768C15.825 20.0768 16.5507 20.6916 16.6596 21.5233L16.7322 21.9573L16.9862 21.5595C17.0224 21.5233 17.6756 20.4746 18.9457 20.5108C19.1997 20.5108 19.4174 20.5469 19.6714 20.6193C20.6511 20.9086 20.8326 21.8126 20.8689 22.2104C20.9052 22.4274 21.0503 22.4274 21.0866 22.4274C21.1592 22.4274 21.2317 22.3551 21.268 22.3189C21.4495 22.1381 21.8486 21.8126 22.5018 21.8126C22.7921 21.8126 23.1187 21.885 23.4453 22.0296C25.0419 22.7167 24.3161 24.7057 24.3161 24.7419C24.171 25.0673 24.171 25.212 24.3161 25.3205L24.3887 25.3567H24.425C24.4976 25.3567 24.5702 25.3205 24.7153 25.2843C24.933 25.212 25.2596 25.1035 25.5499 25.1035C26.7474 25.1035 27.7271 26.0799 27.7271 27.2733C27.6909 28.3944 26.7111 29.3708 25.5136 29.3708ZM42.2782 19.7152C39.6656 17.4369 33.6419 12.1932 32.009 10.9998C31.0655 10.3127 30.4486 9.91489 29.8681 9.77026C29.6141 9.69792 29.2512 9.62558 28.8157 9.62558C28.4166 9.62558 27.9448 9.69792 27.4731 9.8426C26.4208 10.1681 25.3685 10.9998 24.3524 11.8316L24.3161 11.8677C23.3727 12.6272 22.3929 13.3866 21.6309 13.5674C21.3043 13.6397 20.9778 13.6759 20.6511 13.6759C19.8166 13.6759 19.0908 13.4228 18.8005 13.0973C18.7642 13.025 18.8005 12.9526 18.9094 12.808V12.7718L21.1954 10.3127C23.0098 8.50454 24.679 6.84102 28.598 6.73253H28.7795C31.2107 6.73253 33.6419 7.81743 33.9322 7.96211C36.2183 9.08316 38.577 9.62558 40.9356 9.62558C43.4031 9.62558 45.9432 9.01082 48.6285 7.78129C48.3382 7.52812 48.0114 7.275 47.685 7.05799C45.3263 8.07059 43.0766 8.57688 40.9356 8.57688C38.7221 8.57688 36.5086 8.0344 34.3677 7.02184C34.2588 6.9495 31.5735 5.71997 28.7795 5.71997H28.5617C25.2596 5.79226 23.409 6.9495 22.1752 7.96211C20.9778 7.99826 19.9254 8.28757 18.982 8.54068C18.1473 8.7577 17.4216 8.97467 16.7322 8.97467C16.4419 8.97467 15.9338 8.93848 15.8976 8.93848C15.0992 8.90233 11.0351 7.92592 7.84183 6.69639C7.51525 6.91336 7.18868 7.16647 6.89836 7.41964C10.2731 8.79385 14.3735 9.8426 15.6435 9.95109C16.0064 9.98723 16.3693 10.0234 16.7684 10.0234C17.6393 10.0234 18.4739 9.77026 19.3085 9.55329C19.7803 9.40861 20.3246 9.26398 20.9052 9.15549C20.76 9.30013 20.6149 9.44481 20.4335 9.58944L18.111 12.1209C17.9296 12.3017 17.5305 12.808 17.7845 13.4228C17.8934 13.6759 18.111 13.8929 18.4014 14.1099C18.9457 14.4715 19.9617 14.7246 20.8689 14.7246C21.2317 14.7246 21.5583 14.6885 21.8486 14.6161C22.8284 14.3992 23.8444 13.5674 24.933 12.7357C25.8039 12.0485 27.0377 11.1806 27.9811 10.9275C28.2352 10.8552 28.5617 10.819 28.8157 10.819H29.0335C29.6503 10.8913 30.2672 11.1083 31.3196 11.9039C33.2428 13.3504 41.7339 20.7277 41.8065 20.8001C41.8065 20.8001 42.3508 21.2702 42.3145 22.0296C42.2782 22.4636 42.0605 22.8614 41.6251 23.1145C41.2622 23.3315 40.8993 23.4762 40.5002 23.4762C39.9196 23.4762 39.5567 23.223 39.5204 23.1869C39.4841 23.1507 36.5812 20.5108 35.5288 19.6067C35.3474 19.462 35.2022 19.3535 35.0208 19.3535C34.9483 19.3535 34.8394 19.3897 34.8031 19.462C34.6216 19.679 34.8394 19.9683 35.0571 20.1491L38.4681 23.5485C38.4681 23.5485 38.9035 23.9463 38.9398 24.4526C38.9761 25.0312 38.6858 25.5013 38.1415 25.8629C37.7423 26.1161 37.3432 26.2607 36.9441 26.2607C36.436 26.2607 36.0731 26.0076 35.9643 25.9714L35.4926 25.5013C34.5854 24.6334 33.6782 23.7293 33.025 23.1507C32.8436 23.006 32.6984 22.8975 32.517 22.8975C32.4444 22.8975 32.3719 22.9337 32.2993 22.9699C32.2267 23.0422 32.1541 23.223 32.3719 23.4762C32.4444 23.5847 32.5533 23.657 32.5533 23.657L35.0208 26.4416C35.0571 26.4777 35.5288 27.0563 35.0934 27.6349H34.9483L34.7305 27.8519C34.2951 28.2136 33.7508 28.2497 33.533 28.2497C33.4242 28.2497 33.3154 28.2497 33.2065 28.2136C32.9525 28.1774 32.8073 28.1051 32.7347 27.9966L32.6984 27.9604C32.5533 27.8158 31.3196 26.55 30.2672 25.6821C30.1221 25.5736 29.9769 25.429 29.7955 25.429C29.7229 25.429 29.6503 25.4651 29.5778 25.5375C29.36 25.7545 29.6866 26.0799 29.7955 26.2246L31.9001 28.539C31.9001 28.5752 31.8639 28.6114 31.8276 28.6837C31.755 28.7922 31.501 29.0453 30.739 29.1538H30.4486C29.6503 29.1538 28.8157 28.756 28.3803 28.539C28.5617 28.1051 28.6706 27.6711 28.6706 27.201C28.6706 25.4651 27.2554 24.0548 25.5136 24.0548H25.4047C25.4773 23.2592 25.3322 21.7765 23.8081 21.0894C23.3727 20.9086 22.9372 20.8001 22.5018 20.8001C22.1752 20.8001 21.8486 20.8724 21.5221 20.9809C21.1954 20.3661 20.6874 19.896 19.9617 19.679C19.5625 19.5344 19.1997 19.4982 18.8368 19.4982C18.1836 19.4982 17.603 19.679 17.0587 20.0768C16.5507 19.462 15.7887 19.0642 14.9904 19.0642C14.3009 19.0642 13.6115 19.3535 13.1034 19.8237C12.4503 19.3174 9.83762 17.6539 2.83422 16.0988C2.50763 16.0265 1.70932 15.8095 1.23759 15.6649C1.16501 16.0265 1.09244 16.4243 1.05615 16.8221C1.05615 16.8221 2.3262 17.1476 2.58021 17.1837C9.72877 18.7749 12.0874 20.4023 12.4866 20.7277C12.3414 21.0532 12.2689 21.4149 12.2689 21.7403C12.2689 23.223 13.4663 24.4164 14.9541 24.4164C15.1355 24.4164 15.2807 24.4164 15.4258 24.3802C15.6435 25.4651 16.3693 26.2969 17.4579 26.6947C17.7845 26.8032 18.111 26.8755 18.4014 26.8755C18.6191 26.8755 18.8005 26.8394 19.0182 26.8032C19.236 27.3095 19.6714 27.9604 20.6874 28.3582C21.0503 28.5029 21.3769 28.5752 21.7397 28.5752C22.0301 28.5752 22.2841 28.539 22.5381 28.4305C23.0098 29.5878 24.171 30.3834 25.441 30.3834C26.2756 30.3834 27.1103 30.0579 27.6909 29.4431C28.1989 29.7324 29.2875 30.2387 30.3761 30.2387C30.5212 30.2387 30.6664 30.2387 30.7753 30.2025C31.8639 30.0579 32.3719 29.6601 32.5896 29.3346C32.6259 29.2623 32.6622 29.2261 32.6984 29.1538C32.9525 29.2261 33.2428 29.2985 33.5693 29.2985C34.1499 29.2985 34.7305 29.0815 35.3111 28.6837C35.8554 28.2859 36.2546 27.7073 36.3272 27.201V27.1648C36.5449 27.1648 36.7626 27.201 36.9441 27.201C37.5609 27.201 38.1415 27.0202 38.7221 26.6585C39.8107 25.9353 40.0285 24.995 39.9922 24.3802C40.1736 24.4164 40.3913 24.4526 40.5728 24.4526C41.1533 24.4526 41.6976 24.2718 42.2419 23.9463C42.9314 23.5123 43.3305 22.8614 43.4031 22.0658C43.4394 21.5233 43.3305 21.0171 43.0403 20.5469C44.8909 19.7513 49.1003 18.2325 54.0354 17.1114C53.9989 16.7136 53.9628 16.352 53.8901 15.9904C47.8665 17.2922 43.4031 19.2089 42.2782 19.7152Z" fill="#2D3277"/>
<path d="M145.994 13.4013C145.526 14.0462 144.843 14.3328 143.945 14.3328C143.046 14.3328 142.363 14.0104 141.896 13.4013C141.428 12.7564 141.177 11.8608 141.177 10.7143C141.177 9.56788 141.428 8.63641 141.896 8.02735C142.363 7.38246 143.082 7.09584 143.945 7.09584C144.843 7.09584 145.526 7.41828 145.994 8.02735C146.461 8.67224 146.713 9.56788 146.713 10.7143C146.713 11.8966 146.497 12.7923 145.994 13.4013ZM148.438 6.34349C147.467 5.1254 145.958 4.51636 143.945 4.51636C141.931 4.51636 140.458 5.1254 139.451 6.34349C138.48 7.56162 137.977 9.0305 137.977 10.7143C137.977 12.434 138.48 13.8671 139.451 15.0852C140.422 16.3032 141.931 16.9123 143.945 16.9123C145.958 16.9123 147.432 16.3032 148.438 15.0852C149.409 13.8671 149.912 12.3982 149.912 10.7143C149.912 9.0305 149.445 7.59744 148.438 6.34349Z" fill="#2D3277"/>
<path d="M121.721 11.9642C121.685 13.0032 121.397 13.6839 120.858 14.078C120.283 14.4721 119.671 14.6512 119.025 14.6512C118.593 14.6512 118.233 14.5437 117.946 14.2929C117.658 14.078 117.515 13.6839 117.515 13.1465C117.515 12.5733 117.766 12.1434 118.234 11.8568C118.521 11.6776 118.989 11.5701 119.636 11.4268L120.319 11.2835C120.678 11.2119 120.93 11.1402 121.146 11.0686C121.361 10.9969 121.541 10.8894 121.721 10.782V11.9642ZM123.266 5.33632C122.26 4.83477 121.109 4.58398 119.851 4.58398C117.874 4.58398 116.472 5.08557 115.681 6.1245C115.178 6.76939 114.89 7.62921 114.818 8.63236H117.766C117.838 8.16663 117.982 7.80836 118.198 7.55756C118.485 7.1993 119.025 7.02019 119.743 7.02019C120.39 7.02019 120.894 7.09183 121.217 7.30681C121.541 7.48592 121.721 7.80836 121.721 8.30992C121.721 8.704 121.505 8.99063 121.074 9.16978C120.822 9.27725 120.427 9.34889 119.851 9.42054L118.809 9.56387C117.622 9.70716 116.724 9.95796 116.113 10.3162C114.998 10.9611 114.423 12 114.423 13.4331C114.423 14.5437 114.783 15.4035 115.465 16.0126C116.149 16.6217 117.047 16.8724 118.09 16.9083C124.776 17.1949 124.704 13.3973 124.776 12.6091V8.23827C124.776 6.80521 124.273 5.83792 123.266 5.33632Z" fill="#2D3277"/>
<path d="M108.043 7.19554C108.798 7.19554 109.373 7.44634 109.733 7.91207C109.984 8.27034 110.128 8.66442 110.2 9.09433H113.507C113.328 7.44634 112.752 6.26403 111.746 5.61919C110.775 4.9743 109.517 4.65186 107.971 4.65186C106.138 4.65186 104.735 5.18928 103.693 6.2999C102.651 7.41052 102.147 8.95105 102.147 10.9573C102.147 12.7128 102.615 14.1817 103.549 15.2565C104.484 16.3671 105.958 16.9045 107.935 16.9045C109.912 16.9045 111.422 16.2238 112.429 14.8982C113.076 14.0742 113.399 13.2144 113.507 12.2829H110.236C110.164 12.8919 109.984 13.3935 109.661 13.7876C109.337 14.1817 108.798 14.3608 108.043 14.3608C106.965 14.3608 106.246 13.8951 105.886 12.8919C105.67 12.3904 105.562 11.6738 105.562 10.8498C105.562 9.95415 105.67 9.23762 105.886 8.70025C106.209 7.69709 106.965 7.19554 108.043 7.19554Z" fill="#2D3277"/>
<path d="M101.235 4.61987C94.4771 4.61987 94.8725 10.6029 94.8725 10.6029V16.6575H97.9281V10.9612C97.9281 10.0297 98.0359 9.34894 98.2873 8.88321C98.7188 8.09503 99.5456 7.70095 100.768 7.70095H101.128C101.271 7.70095 101.451 7.73677 101.631 7.73677V4.61987H101.235Z" fill="#2D3277"/>
<path d="M85.8194 7.79162C86.2508 7.36171 86.8619 7.11095 87.6527 7.11095C88.3717 7.11095 88.9828 7.32589 89.4504 7.7558C89.9175 8.18575 90.205 8.79477 90.2772 9.58295H85.0286C85.1365 8.83059 85.3879 8.22157 85.8194 7.79162ZM89.9536 13.4881C89.8096 13.6672 89.7018 13.8463 89.5221 13.9538C89.0906 14.312 88.5157 14.4195 87.7967 14.4195C87.1495 14.4195 86.6101 14.312 86.143 14.0254C85.3879 13.5597 84.9569 12.7715 84.8846 11.5893H93.3689C93.3689 10.5861 93.3328 9.79793 93.261 9.29633C93.117 8.40068 92.7934 7.57669 92.3263 6.89598C91.7869 6.1078 91.1041 5.53456 90.3129 5.17629C89.486 4.81803 88.5874 4.63892 87.5809 4.63892C85.8555 4.63892 84.4893 5.17629 83.411 6.25109C82.3323 7.32589 81.793 8.86642 81.793 10.8727C81.793 13.0223 82.4041 14.5628 83.5907 15.5301C84.7768 16.4975 86.143 16.9632 87.6888 16.9632C89.5582 16.9632 91.0319 16.39 92.0744 15.2794C92.6499 14.6703 92.9731 14.0971 93.1532 13.5239L89.9536 13.4881Z" fill="#2D3277"/>
<path d="M80.641 16.6626H77.8368V9.60479C77.8368 8.95995 77.6211 7.41942 75.7877 7.41942C74.5655 7.41942 73.6669 8.31506 73.6669 9.60479V16.6626H70.8627V9.60479C70.8627 8.95995 70.6831 7.41942 68.8137 7.41942C67.5553 7.41942 66.6928 8.31506 66.6928 9.60479V16.6626H63.8887V9.67648C63.8887 6.77453 65.8299 4.58911 68.8137 4.58911C70.2877 4.58911 71.51 5.19818 72.3007 6.20129C73.1276 5.19818 74.3498 4.58911 75.7877 4.58911C78.8433 4.58911 80.641 6.70289 80.641 9.67648V16.6626Z" fill="#2D3277"/>
<path d="M133.404 13.444C132.973 14.0888 132.29 14.4113 131.427 14.4113C130.564 14.4113 129.917 14.0888 129.486 13.444C129.054 12.7991 128.839 11.8676 128.839 10.7928C128.839 9.7897 129.054 8.9657 129.45 8.28499C129.881 7.60428 130.529 7.28184 131.427 7.28184C132.002 7.28184 132.542 7.46095 132.973 7.81921C133.692 8.42828 134.051 9.5389 134.051 10.9361C134.087 11.9751 133.835 12.7991 133.404 13.444ZM137.071 0.94056C137.071 0.94056 133.979 0.618121 133.979 3.09015V6.3862C133.62 5.84877 133.189 5.41886 132.649 5.09642C132.11 4.77398 131.463 4.63068 130.78 4.63068C129.234 4.63068 128.012 5.20389 127.113 6.35033C126.179 7.49682 125.747 9.14481 125.747 11.1153C125.747 12.8349 126.215 14.2322 127.149 15.3428C128.084 16.4534 129.917 16.9191 131.535 16.9191C137.179 16.9191 137.143 12.0826 137.143 12.0826L137.071 0.94056Z" fill="#2D3277"/>
<path d="M95.8233 25.9044C96.2724 25.4745 96.908 25.2595 97.6932 25.2595C98.4409 25.2595 99.0395 25.4745 99.5631 25.8686C100.049 26.2985 100.348 26.9075 100.386 27.6957H94.9631C95.1126 26.9434 95.3747 26.3343 95.8233 25.9044ZM100.087 31.565C99.9367 31.7441 99.8247 31.8874 99.6376 32.0307C99.189 32.389 98.5534 32.4965 97.8427 32.4965C97.1696 32.4965 96.646 32.389 96.1599 32.1024C95.3747 31.6366 94.9631 30.8126 94.8886 29.6662H103.639C103.639 28.663 103.602 27.9107 103.527 27.3733C103.377 26.4776 103.078 25.6894 102.555 24.9729C101.994 24.1847 101.321 23.6115 100.46 23.2532C99.6376 22.895 98.6654 22.7158 97.6182 22.7158C95.8608 22.7158 94.4025 23.2532 93.3177 24.328C92.2335 25.4028 91.6724 26.9075 91.6724 28.9138C91.6724 31.0634 92.271 32.5681 93.5048 33.5354C94.739 34.4669 96.1599 34.9685 97.7307 34.9685C99.6751 34.9685 101.171 34.3953 102.255 33.2846C102.854 32.7114 103.19 32.1024 103.34 31.5291H100.087V31.565Z" fill="#2D3277"/>
<path d="M91.5864 22.7793H91.4326C84.2114 22.7793 84.634 28.7623 84.634 28.7623V34.7095H87.8989V29.1206C87.8989 28.1891 88.0141 27.5084 88.2831 27.0426C88.7438 26.2544 89.6271 25.8604 90.9331 25.8604H91.3174C91.4711 25.8604 91.6632 25.8962 91.8549 25.8962V22.7793H91.5864Z" fill="#2D3277"/>
<path d="M63.8887 21.202V34.6728H67.2276V19.0167C67.2692 19.0167 63.8887 18.9091 63.8887 21.202Z" fill="#2D3277"/>
<path d="M72.6947 22.0436H69.1475V19H72.6947V22.0436Z" fill="#2D3277"/>
<path d="M69.1411 34.7083H72.6944V23.0781H69.1411V34.7083Z" fill="#2D3277"/>
<path d="M80.797 34.679H77.5799L73.3525 23.0754H76.7192L79.1511 31.2409L81.2836 24.114C81.5451 23.3978 82.0317 23.0754 82.7424 23.0754H85.0993L80.797 34.679Z" fill="#2D3277"/>
</g>
<defs>
<clipPath id="clip0_2067_754">
<rect width="150" height="38" fill="white"/>
</clipPath>
</defs>
</svg>
