<svg width="223" height="57" viewBox="0 0 223 57" fill="none" xmlns="http://www.w3.org/2000/svg">
<path d="M81.79 26.47C81.67 11.8 63.5 4.79556e-06 41.18 4.79556e-06H40.65C33.4247 -0.00294396 26.2634 1.35401 19.54 4C8.24 8.54 0.57 16.54 0 25.72C0 25.97 0 26.22 0 26.48C0 26.59 0 26.7 0 26.81V26.93C0 27.01 0 27.08 0 27.15V28.37C0 28.43 0 28.48 0 28.53V28.72C0 28.92 0 29.13 0 29.34C0 29.55 0 29.71 0 29.9C0.44 37.2 4.4 43.84 11.25 48.69C18.7 53.95 28.8 56.69 40.48 56.69H41.11C53.11 56.59 63.41 53.63 70.88 48.15C77.95 43 81.87 35.82 81.81 28L81.79 26.47Z" fill="#2D3277"/>
<path d="M36.87 37.8801C37.2376 37.7344 37.6255 37.6467 38.02 37.6201C38.4212 37.5967 38.8229 37.6555 39.2005 37.7929C39.5782 37.9304 39.9237 38.1435 40.216 38.4193C40.5084 38.695 40.7412 39.0276 40.9004 39.3966C41.0596 39.7656 41.1417 40.1632 41.1417 40.5651C41.1417 40.9669 41.0596 41.3645 40.9004 41.7335C40.7412 42.1025 40.5084 42.4351 40.216 42.7109C39.9237 42.9866 39.5782 43.1998 39.2005 43.3372C38.8229 43.4746 38.4212 43.5334 38.02 43.5101V43.5101C37.2658 43.5161 36.5385 43.23 35.9904 42.7118C35.4424 42.1936 35.1161 41.4834 35.08 40.7301C35.08 40.0601 34.69 39.9501 34.48 39.9501C34.2683 39.9721 34.0724 40.0719 33.93 40.2301C33.7513 40.4257 33.5356 40.584 33.2952 40.6956C33.0549 40.8071 32.7948 40.8699 32.53 40.8801C32.2061 40.88 31.8859 40.8119 31.59 40.6801C31.0856 40.5481 30.6467 40.2365 30.3557 39.8038C30.0648 39.3711 29.9419 38.847 30.01 38.3301C30.0373 38.2278 30.0387 38.1204 30.0143 38.0174C29.9899 37.9145 29.9403 37.8192 29.87 37.7401C29.7768 37.6555 29.663 37.5969 29.54 37.5701C29.4446 37.5581 29.3478 37.5671 29.2562 37.5965C29.1647 37.6258 29.0806 37.6748 29.01 37.7401C28.5947 38.0923 28.0888 38.321 27.55 38.4001C27.2869 38.4014 27.0258 38.3539 26.78 38.2601C26.0672 38.0356 25.4615 37.5572 25.0781 36.9157C24.6947 36.2742 24.5601 35.5142 24.7 34.7801C24.729 34.6785 24.7263 34.5705 24.6924 34.4704C24.6584 34.3704 24.5948 34.2831 24.51 34.2201C24.25 34.0501 24 34.3001 23.84 34.4601C23.6576 34.6355 23.4376 34.7672 23.1968 34.8451C22.956 34.9231 22.7006 34.9453 22.45 34.9101C21.8484 34.8669 21.2834 34.605 20.8616 34.174C20.4397 33.7429 20.1902 33.1724 20.16 32.5701C20.1548 32.2733 20.2097 31.9786 20.3214 31.7036C20.4331 31.4286 20.5993 31.1791 20.81 30.9701C21.0154 30.7621 21.2598 30.5968 21.5292 30.4835C21.7986 30.3703 22.0877 30.3113 22.38 30.3101C22.9074 30.2402 23.4414 30.3772 23.8701 30.6922C24.2988 31.0072 24.589 31.4759 24.68 32.0001C24.68 32.0001 24.68 32.0801 24.68 32.1301C24.68 32.1801 24.74 32.5801 24.97 32.6601C25.2 32.7401 25.39 32.4901 25.5 32.3301C25.5207 32.2864 25.5477 32.246 25.58 32.2101L25.65 32.1201C25.9308 31.7143 26.319 31.3946 26.7711 31.1968C27.2232 30.999 27.7214 30.9309 28.21 31.0001C28.5491 30.9984 28.8864 31.049 29.21 31.1501C29.6832 31.3169 30.0888 31.634 30.365 32.0528C30.6413 32.4717 30.7729 32.9694 30.74 33.4701C30.7373 33.6169 30.7924 33.7589 30.8934 33.8655C30.9944 33.9722 31.1332 34.0348 31.28 34.0401C31.3701 34.037 31.4586 34.0149 31.5396 33.9753C31.6206 33.9356 31.6923 33.8793 31.75 33.8101C31.9587 33.5466 32.2188 33.3283 32.5145 33.1684C32.8102 33.0085 33.1352 32.9104 33.47 32.8801C33.9116 32.8826 34.3477 32.978 34.75 33.1601C36.95 34.0001 35.95 36.7801 35.95 36.8001C35.82 37.1201 35.61 37.6701 36.06 37.9601H36.15H36.33C36.4955 37.9465 36.6576 37.906 36.81 37.8401L36.87 37.8801Z" fill="white"/>
<path d="M79.5699 23.3C73.8252 24.6369 68.2202 26.5153 62.8299 28.91C58.9599 25.59 50.0099 17.91 47.5899 16.15C46.6187 15.3544 45.5198 14.7289 44.3399 14.3C43.813 14.1338 43.2622 14.0561 42.7099 14.07C42.0284 14.0829 41.3532 14.2044 40.7099 14.43C38.9856 15.1527 37.399 16.1676 36.0199 17.43L35.9299 17.51C34.802 18.5635 33.4948 19.4068 32.0699 20C31.6068 20.1026 31.1342 20.1562 30.6599 20.16V20.16C29.7686 20.2289 28.8829 19.9692 28.1699 19.43C28.1982 19.3683 28.2352 19.311 28.2799 19.26L31.6499 15.57C34.2599 12.91 36.7199 10.41 42.4199 10.23H42.6999C45.2879 10.3272 47.8321 10.9285 50.1899 12C53.4665 13.5985 57.0642 14.4295 60.7099 14.43C64.6136 14.3186 68.4473 13.367 71.9499 11.64C75.9499 15 78.6199 19 79.5699 23.3Z" fill="white"/>
<path d="M40.67 1.82991H41.18C46.5686 1.80603 51.934 2.53645 57.12 3.99991L57.46 4.09991L58.16 4.30991C62.4303 5.62764 66.464 7.61578 70.11 10.1999C67.1464 11.5292 63.9472 12.2533 60.7 12.3299H60.55C57.262 12.3041 54.0219 11.5385 51.07 10.0899C48.4463 8.92126 45.6208 8.27261 42.75 8.17991H42.31C38.8316 8.1579 35.4594 9.37769 32.8 11.6199C31.1987 11.7291 29.6168 12.0348 28.09 12.5299C27.0452 12.895 25.9548 13.1137 24.85 13.1799H23.74H23.6C19.6602 12.5108 15.7905 11.4798 12.04 10.0999C19.39 4.92991 29.79 1.91991 40.67 1.82991Z" fill="#FFD100"/>
<path d="M10.16 11.52C15.34 13.59 21.34 15.06 23.16 15.16H23.57C23.99 15.16 24.42 15.21 24.85 15.22C26.1476 15.1469 27.4293 14.898 28.66 14.48C29.16 14.33 29.66 14.19 30.17 14.07L30.1 14.14L26.68 17.9C26.3853 18.1719 26.179 18.526 26.0881 18.9166C25.9971 19.3071 26.0257 19.7159 26.17 20.09C26.3854 20.5539 26.7334 20.9436 27.17 21.21C28.3363 21.8595 29.6555 22.1841 30.99 22.15C31.5107 22.1595 32.0308 22.1092 32.54 22C34.03 21.66 35.54 20.43 37.19 19.1C38.4925 17.964 39.9764 17.0547 41.58 16.41C41.9686 16.3066 42.368 16.2496 42.77 16.24H43.07C44.2921 16.4417 45.4344 16.9782 46.37 17.79C49.08 19.79 60.66 29.79 61.99 30.89C62.2149 31.0987 62.3927 31.3529 62.5117 31.6357C62.6307 31.9185 62.6881 32.2233 62.68 32.53C62.6679 32.8291 62.581 33.1203 62.4273 33.3771C62.2736 33.6339 62.0579 33.8481 61.8 34C61.3535 34.3036 60.8297 34.4735 60.29 34.49V34.49C59.8145 34.4858 59.35 34.3471 58.95 34.09L58.63 33.8C57.56 32.8 54.31 29.93 52.97 28.8C52.732 28.5451 52.4075 28.3882 52.06 28.36C51.9598 28.3581 51.8605 28.3797 51.7702 28.4231C51.6799 28.4665 51.6011 28.5305 51.54 28.61C51.24 28.98 51.4 29.51 51.93 29.95L57 34.95C57.3355 35.2663 57.557 35.6847 57.63 36.14C57.6487 36.5213 57.5579 36.9 57.3683 37.2314C57.1787 37.5628 56.8982 37.833 56.56 38.01C56.0826 38.3583 55.5107 38.5536 54.92 38.57V38.57C54.4828 38.5666 54.0545 38.4457 53.68 38.22L52.95 37.5C51.64 36.23 50.28 34.92 49.28 34.1C49.0379 33.8565 48.7209 33.7015 48.38 33.66V33.66C48.286 33.6601 48.193 33.6797 48.1069 33.7176C48.0209 33.7555 47.9436 33.8108 47.88 33.88C47.74 34.05 47.56 34.4 47.96 34.88C48.09 35.04 48.23 35.18 48.23 35.18L51.93 39.26C52.1135 39.4637 52.2167 39.7271 52.2204 40.0013C52.2241 40.2754 52.128 40.5415 51.95 40.75L51.84 40.91L51.52 41.21C51.0504 41.5624 50.477 41.7488 49.89 41.74C49.7402 41.7513 49.5898 41.7513 49.44 41.74C49.02 41.67 48.9 41.57 48.86 41.52L48.74 41.4C47.6908 40.3037 46.5825 39.2655 45.42 38.29C45.1896 38.0561 44.8862 37.9079 44.56 37.87V37.87C44.4633 37.8687 44.3676 37.8886 44.2794 37.9283C44.1913 37.9681 44.113 38.0267 44.05 38.1C43.74 38.45 43.88 38.96 44.4 39.44L47.19 42.55C47.12 42.65 46.81 42.99 45.74 43.13C45.6035 43.1399 45.4665 43.1399 45.33 43.13C44.3804 43.0759 43.4532 42.8203 42.61 42.38C42.8394 41.7904 42.9547 41.1626 42.95 40.53C42.9478 39.883 42.8166 39.2429 42.5642 38.6471C42.3119 38.0513 41.9433 37.5118 41.48 37.06C40.5722 36.1659 39.3541 35.6572 38.08 35.64C38.1672 34.7388 37.9663 33.8332 37.5063 33.0534C37.0464 32.2735 36.3509 31.6597 35.52 31.3C34.8868 31.0306 34.208 30.8846 33.52 30.87V30.87C33.0757 30.8788 32.6348 30.9495 32.21 31.08C31.6812 30.199 30.8492 29.5413 29.87 29.23C29.161 28.9753 28.4031 28.8862 27.6544 28.9694C26.9056 29.0526 26.1858 29.3059 25.55 29.71C25.1591 29.2786 24.6822 28.9339 24.15 28.6979C23.6178 28.4619 23.0422 28.34 22.46 28.34V28.34C21.424 28.354 20.4285 28.745 19.66 29.44C18.47 28.61 14.49 26.28 4.5 24.1C4.05 24 3.07 23.73 2.25 23.5C3.14 19.14 5.88 15 10.16 11.52Z" fill="white"/>
<path d="M79.9503 28.08C79.9503 28.4067 79.9103 28.74 79.8303 29.08C78.9503 34.75 75.1003 40.08 68.7503 44.18C61.3503 49 51.5403 51.68 41.0903 51.77H40.5703C19.2403 51.77 1.89027 40.77 1.78027 27.12C1.78027 26.69 1.78027 26.22 1.84027 25.69L4.01027 26.18C13.8503 28.28 17.5303 30.5 18.4503 31.18C18.285 31.6418 18.2037 32.1295 18.2103 32.62C18.2208 33.7305 18.6687 34.7922 19.4568 35.5747C20.2449 36.3571 21.3097 36.7974 22.4203 36.8C22.6101 36.8099 22.8004 36.8099 22.9903 36.8C23.1896 37.5751 23.5781 38.2886 24.1208 38.8767C24.6636 39.4648 25.3437 39.9092 26.1003 40.17C26.5688 40.3534 27.0672 40.4483 27.5703 40.45C27.8355 40.4476 28.1 40.4209 28.3603 40.37C28.883 41.4107 29.7904 42.207 30.8903 42.59C31.4163 42.796 31.9754 42.9044 32.5403 42.91C32.903 42.9115 33.2638 42.8575 33.6103 42.75C34.0088 43.5875 34.6365 44.2949 35.4205 44.7905C36.2045 45.286 37.1128 45.5493 38.0403 45.55C39.3006 45.5373 40.5075 45.0395 41.4103 44.16C42.6166 44.8178 43.9575 45.1907 45.3303 45.25C45.5401 45.2606 45.7504 45.2606 45.9603 45.25C46.5267 45.2217 47.0798 45.068 47.5796 44.8C48.0793 44.5319 48.5134 44.1562 48.8503 43.7C48.8804 43.6624 48.9071 43.6222 48.9303 43.58C49.307 43.6704 49.6929 43.7173 50.0803 43.72C51.0616 43.687 52.0057 43.3361 52.7703 42.72C53.52 42.202 54.0704 41.4434 54.3303 40.57C54.5403 40.57 54.7703 40.57 54.9803 40.57C55.9656 40.5476 56.9223 40.2345 57.7303 39.67C58.3118 39.3297 58.7993 38.8497 59.1485 38.2735C59.4978 37.6973 59.6977 37.043 59.7303 36.37C59.9331 36.3895 60.1374 36.3895 60.3403 36.37C61.2618 36.3889 62.1688 36.1387 62.9503 35.65C63.4665 35.3282 63.8988 34.8885 64.2118 34.3669C64.5247 33.8453 64.7093 33.2569 64.7503 32.65C64.7971 31.9047 64.6379 31.1609 64.2903 30.5C69.363 28.422 74.5928 26.7501 79.9303 25.5C79.9303 25.93 80.0103 26.37 80.0103 26.81C80.0103 27.25 79.9503 27.66 79.9503 28.08Z" fill="#FFD100"/>
<path d="M220.53 9.81C219.063 7.93667 216.827 7 213.82 7C210.82 7 208.59 7.92 207.12 9.77C205.65 11.6387 204.882 13.9636 204.95 16.34C204.891 18.7217 205.674 21.048 207.16 22.91C208.63 24.72 210.87 25.63 213.86 25.63C216.85 25.63 219.1 24.72 220.57 22.91C222.056 21.048 222.839 18.7217 222.78 16.34C222.815 13.9674 222.019 11.6571 220.53 9.81V9.81ZM216.88 20.39C216.524 20.8607 216.058 21.2365 215.523 21.4842C214.987 21.7319 214.399 21.8438 213.81 21.81C213.22 21.8411 212.631 21.728 212.094 21.4806C211.558 21.2332 211.089 20.8589 210.73 20.39C209.939 19.1935 209.56 17.7716 209.65 16.34C209.566 14.9248 209.945 13.5207 210.73 12.34C211.091 11.8736 211.56 11.5016 212.096 11.2561C212.633 11.0105 213.221 10.8986 213.81 10.93C214.398 10.8968 214.985 11.008 215.52 11.2537C216.055 11.4995 216.522 11.8724 216.88 12.34C217.661 13.522 218.037 14.9259 217.95 16.34C218.042 17.7704 217.667 19.192 216.88 20.39V20.39Z" fill="#2D3277"/>
<path d="M182.95 8.25999C181.356 7.48532 179.602 7.09814 177.83 7.12999C174.83 7.12999 172.83 7.89999 171.57 9.43999C170.769 10.5373 170.319 11.8518 170.28 13.21H174.7C174.764 12.6237 174.989 12.0665 175.35 11.6C175.656 11.3063 176.021 11.0826 176.422 10.9444C176.823 10.8063 177.248 10.757 177.67 10.8C178.432 10.7578 179.193 10.8984 179.89 11.21C180.148 11.3578 180.357 11.5774 180.492 11.8419C180.627 12.1065 180.682 12.4047 180.65 12.7C180.644 12.9951 180.544 13.2807 180.364 13.5147C180.184 13.7487 179.934 13.9188 179.65 14C179.06 14.2117 178.445 14.3461 177.82 14.4L176.26 14.59C174.867 14.7068 173.509 15.0905 172.26 15.72C171.446 16.1848 170.779 16.8692 170.335 17.6949C169.891 18.5207 169.689 19.4545 169.75 20.39C169.709 21.1057 169.827 21.8216 170.097 22.4858C170.367 23.15 170.781 23.7458 171.31 24.23C172.444 25.1361 173.859 25.6172 175.31 25.59C185.31 26.03 185.18 20.32 185.31 19.14V12.57C185.15 10.46 184.4 8.99999 182.95 8.25999ZM180.63 18.26C180.685 18.855 180.594 19.4543 180.366 20.0065C180.138 20.5586 179.779 21.0471 179.32 21.43C178.51 21.9923 177.546 22.2925 176.56 22.29C175.979 22.3082 175.41 22.1244 174.95 21.77C174.716 21.5593 174.536 21.2964 174.423 21.0028C174.31 20.7091 174.268 20.393 174.3 20.08C174.276 19.6885 174.364 19.2983 174.554 18.9548C174.743 18.6113 175.026 18.3288 175.37 18.14C176.034 17.8159 176.747 17.6031 177.48 17.51L178.48 17.32C178.898 17.2455 179.309 17.1385 179.71 17C180.019 16.8878 180.315 16.7402 180.59 16.56L180.63 18.26Z" fill="#2D3277"/>
<path d="M160.14 11.0001C160.614 10.9645 161.089 11.0421 161.528 11.2264C161.966 11.4107 162.354 11.6964 162.66 12.0601C163.037 12.5789 163.278 13.1841 163.36 13.8201H168.28C168.006 11.3334 167.14 9.60011 165.68 8.62011C163.979 7.57505 162.005 7.05985 160.01 7.14011C158.83 7.07732 157.65 7.26794 156.549 7.69916C155.449 8.13037 154.453 8.79219 153.63 9.64011C151.984 11.5876 151.153 14.0951 151.31 16.6401C151.208 18.9823 151.954 21.2828 153.41 23.1201C154.796 24.7801 156.973 25.6101 159.94 25.6101C161.217 25.6939 162.494 25.4644 163.662 24.9415C164.83 24.4187 165.852 23.6183 166.64 22.6101C167.546 21.4816 168.099 20.1112 168.23 18.6701H163.32C163.262 19.4888 162.963 20.2719 162.46 20.9201C162.147 21.2309 161.771 21.4691 161.356 21.6177C160.941 21.7664 160.498 21.8218 160.06 21.7801C159.354 21.8241 158.653 21.6345 158.066 21.2405C157.478 20.8465 157.037 20.27 156.81 19.6001C156.463 18.6117 156.303 17.5671 156.34 16.5201C156.303 15.4273 156.462 14.3368 156.81 13.3001C157.032 12.6024 157.48 11.9981 158.082 11.5819C158.685 11.1657 159.409 10.9611 160.14 11.0001V11.0001Z" fill="#2D3277"/>
<path d="M149.95 7.17993C139.84 7.17993 140.43 16.1799 140.43 16.1799V25.2799H145.03V16.7099C144.965 15.6472 145.143 14.5836 145.55 13.5999C146.18 12.4099 147.41 11.8099 149.25 11.8099H149.79L150.56 11.8799V7.21993H150.17L149.95 7.17993Z" fill="#2D3277"/>
<path d="M133.13 20.4899C132.954 20.7491 132.742 20.9816 132.5 21.1799C131.752 21.7084 130.842 21.9563 129.93 21.8799C129.076 21.9291 128.227 21.7238 127.49 21.2899C126.891 20.8967 126.404 20.3544 126.078 19.7162C125.752 19.078 125.597 18.3659 125.63 17.6499H138.33C138.367 16.4911 138.317 15.3312 138.18 14.1799C138 12.8888 137.525 11.6566 136.79 10.5799C136.059 9.44929 135.017 8.5535 133.79 7.99991C132.498 7.43602 131.099 7.15637 129.69 7.17991C128.54 7.1353 127.392 7.32704 126.319 7.74328C125.246 8.15951 124.269 8.7914 123.45 9.59991C121.85 11.2132 121.05 13.5466 121.05 16.5999C121.05 19.8199 121.93 22.1499 123.71 23.5999C125.44 25.0169 127.614 25.7782 129.85 25.7499C131.062 25.8206 132.276 25.6295 133.408 25.1895C134.54 24.7495 135.563 24.0709 136.41 23.1999C137.158 22.4697 137.709 21.5613 138.01 20.5599L133.13 20.4899ZM126.95 11.9399C127.309 11.5933 127.736 11.3254 128.204 11.1533C128.673 10.9811 129.172 10.9084 129.67 10.9399C130.658 10.9074 131.624 11.2423 132.38 11.8799C132.758 12.2342 133.06 12.6615 133.268 13.1359C133.476 13.6103 133.585 14.1219 133.59 14.6399H125.73C125.835 13.6321 126.263 12.6852 126.95 11.9399V11.9399Z" fill="#2D3277"/>
<path d="M119.19 25.2399H115V14.6799C115.037 14.2604 114.985 13.8379 114.847 13.4399C114.71 13.0418 114.49 12.6772 114.202 12.3697C113.915 12.0622 113.565 11.8187 113.177 11.6551C112.789 11.4914 112.371 11.4113 111.95 11.4199C111.523 11.4082 111.098 11.4852 110.702 11.6461C110.306 11.807 109.948 12.0482 109.65 12.3546C109.352 12.6609 109.121 13.0258 108.971 13.426C108.822 13.8263 108.757 14.2532 108.78 14.6799V25.2399H104.58V14.6799C104.629 14.2621 104.588 13.8385 104.458 13.4383C104.328 13.038 104.114 12.6705 103.829 12.3609C103.544 12.0513 103.196 11.8069 102.807 11.6445C102.419 11.4821 102.001 11.4055 101.58 11.4199C101.151 11.4037 100.724 11.4775 100.325 11.6367C99.9269 11.7959 99.5662 12.0368 99.2666 12.344C98.9669 12.6512 98.735 13.0178 98.5858 13.4201C98.4366 13.8225 98.3733 14.2516 98.4002 14.6799V25.2399H94.2002V14.7799C94.2002 10.4199 97.0902 7.1199 101.58 7.1199C102.577 7.0968 103.566 7.30405 104.469 7.72552C105.373 8.147 106.167 8.77132 106.79 9.5499C107.419 8.79017 108.207 8.17846 109.099 7.75842C109.991 7.33838 110.964 7.12035 111.95 7.1199C116.53 7.1199 119.23 10.2899 119.23 14.7799L119.19 25.2399Z" fill="#2D3277"/>
<path d="M203.55 1.6699C203.55 1.6699 198.95 1.1699 198.95 4.8899V9.80991C198.459 9.00652 197.77 8.34212 196.95 7.8799C196.087 7.40559 195.115 7.16434 194.13 7.1799C193.078 7.14545 192.033 7.35927 191.079 7.80404C190.125 8.2488 189.29 8.912 188.64 9.7399C187.187 11.8299 186.482 14.3493 186.64 16.8899C186.542 19.1855 187.281 21.4385 188.72 23.2299C190.11 24.8799 192.84 25.5999 195.27 25.5999C203.72 25.5999 203.62 18.3499 203.62 18.3499L203.55 1.6699ZM198.04 20.4199C197.716 20.8939 197.275 21.2764 196.76 21.5304C196.245 21.7844 195.673 21.9013 195.1 21.8699C194.533 21.9045 193.967 21.7886 193.46 21.5339C192.952 21.2793 192.521 20.895 192.21 20.4199C191.525 19.2019 191.196 17.8159 191.26 16.4199C191.212 15.1074 191.534 13.8079 192.19 12.6699C192.496 12.1745 192.932 11.772 193.45 11.506C193.968 11.2399 194.549 11.1202 195.13 11.1599C195.971 11.1511 196.788 11.4457 197.43 11.9899C198.51 12.9099 199.05 14.5499 199.05 16.6899C199.108 18.0079 198.755 19.3114 198.04 20.4199V20.4199Z" fill="#2D3277"/>
<path d="M150.95 47.1799C150.775 47.4365 150.567 47.6685 150.33 47.8699C149.579 48.3993 148.667 48.6536 147.75 48.5899C146.904 48.6412 146.061 48.4392 145.33 48.0099C144.739 47.6092 144.262 47.0625 143.945 46.423C143.628 45.7834 143.482 45.0727 143.52 44.3599H156.11C156.147 43.2178 156.097 42.0744 155.96 40.9399C155.779 39.6569 155.307 38.4323 154.58 37.3599C153.846 36.2367 152.805 35.3481 151.58 34.7999C150.296 34.2443 148.909 33.9681 147.51 33.9899C146.371 33.9456 145.234 34.1358 144.171 34.5486C143.108 34.9615 142.141 35.5882 141.33 36.3899C139.74 37.9999 138.95 40.2799 138.95 43.2799C138.95 46.4699 139.82 48.7799 141.59 50.1999C143.305 51.6062 145.462 52.3606 147.68 52.3299C148.882 52.3997 150.084 52.2099 151.206 51.7733C152.328 51.3368 153.342 50.6637 154.18 49.7999C154.921 49.0753 155.465 48.1735 155.76 47.1799H150.95ZM144.83 38.7099C145.187 38.3659 145.611 38.0995 146.076 37.9274C146.54 37.7553 147.036 37.6812 147.53 37.7099C148.507 37.6821 149.46 38.0129 150.21 38.6399C150.586 38.9897 150.887 39.4119 151.095 39.8811C151.303 40.3503 151.413 40.8568 151.42 41.3699H143.63C143.734 40.3813 144.147 39.4506 144.81 38.7099H144.83Z" fill="#2D3277"/>
<path d="M119.38 33.9999C118.395 33.9796 117.422 34.2212 116.56 34.6999C115.74 35.1583 115.051 35.8193 114.56 36.6199V28.3899C114.56 28.3899 109.94 27.9399 109.94 31.6899V45.0799C109.94 45.0799 109.84 52.3299 118.3 52.3299C120.72 52.3299 123.45 51.5999 124.84 49.9599C126.289 48.1687 127.039 45.9123 126.95 43.6099C127.085 41.1095 126.358 38.6384 124.89 36.6099C124.245 35.7682 123.409 35.0924 122.451 34.6385C121.492 34.1846 120.44 33.9657 119.38 33.9999V33.9999ZM121.28 47.1099C120.969 47.585 120.538 47.9693 120.03 48.2239C119.523 48.4786 118.957 48.5945 118.39 48.5599C117.808 48.599 117.226 48.487 116.701 48.2347C116.175 47.9823 115.723 47.5983 115.39 47.1199C114.679 46.01 114.329 44.7068 114.39 43.3899C114.39 41.2599 114.93 39.7299 116.01 38.8199C116.648 38.2681 117.466 37.9693 118.31 37.9799C118.892 37.9412 119.474 38.0624 119.992 38.3303C120.51 38.5982 120.945 39.0026 121.25 39.4999C121.909 40.6369 122.235 41.9364 122.19 43.2499C122.271 44.6074 121.955 45.9592 121.28 47.1399V47.1099Z" fill="#2D3277"/>
<path d="M138.07 34H137.85C127.73 34 128.33 43 128.33 43V52H132.95V43.6C132.886 42.5406 133.064 41.4806 133.47 40.5C134.1 39.3 135.33 38.7 137.17 38.7H137.71C137.94 38.7 138.19 38.7 138.48 38.77V34H138.07Z" fill="#2D3277"/>
<path d="M94.1099 31.68V51.88H98.4199V28.38C98.4199 28.38 94.1099 28.21 94.1099 31.68Z" fill="#2D3277"/>
<path d="M106.55 28.3501H101.94V32.9201H106.55V28.3501Z" fill="#2D3277"/>
<path d="M106.56 34.48H101.94V51.92H106.56V34.48Z" fill="#2D3277"/>
</svg>
