<svg width="612" height="504" viewBox="0 0 612 504" fill="none" xmlns="http://www.w3.org/2000/svg">
<path d="M397.408 104.604C407.277 106.498 419.313 100.42 426.675 89.8162C435.285 77.4096 440.776 72.1816 450.168 67.4866C451.359 66.8856 452.755 66.3072 454.229 65.7175V35.7783H358.963C359.088 42.2765 359.893 48.7293 361.345 54.6491C371.158 94.67 385.769 102.37 397.408 104.604Z" fill="black" fill-opacity="0.04"/>
<path d="M425.837 175.506C421.799 164.891 412.655 151.895 399.088 147.211C385.952 142.675 375.992 137.946 366.951 128.363C365.147 126.458 363.207 124.043 361.143 121.48C353.621 112.135 344.297 100.534 330.639 98.016C324.717 96.9273 319.181 97.4943 314.099 99.6604V175.869H425.962C425.917 175.756 425.883 175.62 425.837 175.506Z" fill="black" fill-opacity="0.04"/>
<path d="M330.945 96.3484C345.227 98.9795 355.176 111.352 362.447 120.39C364.512 122.953 366.429 125.346 368.187 127.206C376.99 136.528 386.746 141.155 399.633 145.612C413.744 150.488 423.239 163.938 427.414 174.905C427.527 175.211 427.629 175.551 427.743 175.869H454.231V67.5433C453.017 68.031 451.917 68.5073 450.93 68.9949C441.832 73.5538 436.489 78.6458 428.072 90.7802C421.3 100.544 410.682 106.646 401.085 106.646C399.723 106.646 398.396 106.521 397.092 106.271C384.954 103.935 369.741 96.0082 359.691 55.0573C358.204 49.0015 357.388 42.4126 357.263 35.7783H314.099V97.8114C319.306 95.7474 324.944 95.2484 330.945 96.3598V96.3484Z" fill="black" fill-opacity="0.04"/>
<path d="M303.719 25.3901H464.622V186.245V25.3901H303.719Z" fill="black" fill-opacity="0.04"/>
<path d="M462.92 27.0913H305.42V184.544H462.92V27.0913ZM312.397 177.57V34.0771H455.932V177.57H312.397Z" fill="black" fill-opacity="0.04"/>
<path d="M564.676 198.436C546.117 198.436 528.715 189.262 518.097 173.135C508.943 159.232 512.176 145.26 514.547 135.054C515.182 132.32 515.715 129.996 515.965 127.954C517.201 117.895 515.84 110.558 510.134 96.5182C507.956 91.1768 506.946 85.4725 507.151 80.1084H487.367V270.324C489.613 269.428 491.802 268.646 493.844 267.931C496.476 267.001 498.949 266.128 500.9 265.21C510.429 260.73 516.09 255.593 525.108 243.254C533.378 231.936 546.707 225.676 557.518 228.024C570.007 230.745 585.526 239.33 594.873 281.926C598.685 299.277 598.004 325.53 584.584 345.285H603.154V185.406C595.395 190.827 586.626 194.83 577.846 196.894C573.445 197.926 569.032 198.436 564.687 198.436H564.676Z" fill="black" fill-opacity="0.04"/>
<path d="M593.206 282.289C584.063 240.635 569.134 232.299 557.143 229.691C546.968 227.48 534.353 233.468 526.469 244.264C517.258 256.875 511.45 262.137 501.615 266.764C499.584 267.716 497.077 268.601 494.423 269.542C492.199 270.324 489.806 271.198 487.367 272.184V345.297H582.497C596.269 325.893 596.995 299.606 593.206 282.3V282.289Z" fill="black" fill-opacity="0.04"/>
<path d="M511.711 95.8832C517.553 110.229 518.937 117.771 517.655 128.17C517.394 130.291 516.815 132.774 516.214 135.394C513.911 145.351 510.769 158.914 519.527 172.205C532.22 191.496 554.954 200.534 577.449 195.238C586.388 193.129 595.327 188.967 603.154 183.319V80.1084H508.863C508.659 85.257 509.623 90.7345 511.722 95.8832H511.711Z" fill="black" fill-opacity="0.04"/>
<path d="M478.79 69.9927H611.719H478.79V355.39H611.719H478.79V69.9927Z" fill="black" fill-opacity="0.04"/>
<path d="M480.492 353.689H610.017V71.6938H480.492V353.689ZM604.844 78.4075V346.975H485.665V78.4075H604.844Z" fill="black" fill-opacity="0.04"/>
<path d="M437.657 267.796C423.942 269.599 414.617 277.889 407.119 284.546C405.054 286.383 403.103 288.107 401.276 289.49C392.247 296.329 382.298 299.708 369.173 302.94C356.785 305.991 348.107 313.975 343.626 321.085H456.306V269.644C450.657 267.535 444.395 266.9 437.645 267.796H437.657Z" fill="black" fill-opacity="0.04"/>
<path d="M341.052 277.242C348.471 287.653 360.632 293.63 370.592 291.77C382.333 289.57 397.08 282.005 406.972 242.722C408.367 237.199 409.161 231.211 409.343 225.155H312.023V253.11C313.985 253.847 315.823 254.561 317.355 255.31C326.827 259.925 332.374 265.051 341.052 277.242Z" fill="black" fill-opacity="0.04"/>
<path d="M408.617 243.13C398.487 283.344 383.138 291.135 370.898 293.426C369.594 293.675 368.244 293.789 366.882 293.789C357.206 293.789 346.497 287.801 339.668 278.218C331.172 266.299 325.783 261.298 316.606 256.83C315.29 256.195 313.713 255.56 312.023 254.924V321.085H341.642C346.123 313.465 355.368 304.596 368.777 301.285C381.686 298.098 391.453 294.787 400.256 288.13C402.026 286.792 403.954 285.079 405.996 283.265C413.268 276.812 423.216 267.977 437.442 266.095C444.237 265.199 450.578 265.777 456.318 267.807V225.144H411.044C410.863 231.336 410.046 237.471 408.617 243.13Z" fill="black" fill-opacity="0.04"/>
<path d="M462.92 328.887V217.364H305.42V328.887H462.92ZM458.019 322.797H310.321V223.454H458.019V322.797Z" fill="black" fill-opacity="0.04"/>
<path d="M0.46875 503.805H216.659V75.7849H0.46875V503.805ZM19.6987 106.945C19.6987 105.425 20.9287 104.195 22.4487 104.195H194.679C196.199 104.195 197.429 105.425 197.429 106.945V176.655C197.429 178.175 196.199 179.405 194.679 179.405H22.4487C20.9287 179.405 19.6987 178.175 19.6987 176.655V106.945ZM19.6987 199.135C19.6987 197.615 20.9287 196.385 22.4487 196.385H194.679C196.199 196.385 197.429 197.615 197.429 199.135V268.845C197.429 270.365 196.199 271.595 194.679 271.595H22.4487C20.9287 271.595 19.6987 270.365 19.6987 268.845V199.135ZM19.6987 291.315C19.6987 289.795 20.9287 288.565 22.4487 288.565H194.679C196.199 288.565 197.429 289.795 197.429 291.315V361.025C197.429 362.545 196.199 363.775 194.679 363.775H22.4487C20.9287 363.775 19.6987 362.545 19.6987 361.025V291.315ZM19.6987 383.505C19.6987 381.985 20.9287 380.755 22.4487 380.755H194.679C196.199 380.755 197.429 381.985 197.429 383.505V453.215C197.429 454.735 196.199 455.965 194.679 455.965H22.4487C20.9287 455.965 19.6987 454.735 19.6987 453.215V383.505Z" fill="black" fill-opacity="0.04"/>
<path d="M136.089 414.145H81.0293C80.8912 414.145 80.7793 414.257 80.7793 414.395V417.775C80.7793 417.913 80.8912 418.025 81.0293 418.025H136.089C136.227 418.025 136.339 417.913 136.339 417.775V414.395C136.339 414.257 136.227 414.145 136.089 414.145Z" fill="black" fill-opacity="0.04"/>
<path d="M22.4492 454.465H194.679C195.369 454.465 195.929 453.905 195.929 453.215V383.505C195.929 382.815 195.369 382.255 194.679 382.255H22.4492C21.7592 382.255 21.1992 382.815 21.1992 383.505V453.215C21.1992 453.905 21.7592 454.465 22.4492 454.465ZM79.2892 393.295C79.2892 392.335 80.0792 391.545 81.0392 391.545H136.099C137.059 391.545 137.849 392.335 137.849 393.295V405.945C137.849 406.905 137.059 407.695 136.099 407.695H81.0392C80.0792 407.695 79.2892 406.905 79.2892 405.945V393.295ZM79.2892 414.405C79.2892 413.445 80.0792 412.655 81.0392 412.655H136.099C137.059 412.655 137.849 413.445 137.849 414.405V417.785C137.849 418.745 137.059 419.535 136.099 419.535H81.0392C80.0792 419.535 79.2892 418.745 79.2892 417.785V414.405Z" fill="black" fill-opacity="0.04"/>
<path d="M136.089 393.035H81.0293C80.8912 393.035 80.7793 393.147 80.7793 393.285V405.935C80.7793 406.073 80.8912 406.185 81.0293 406.185H136.089C136.227 406.185 136.339 406.073 136.339 405.935V393.285C136.339 393.147 136.227 393.035 136.089 393.035Z" fill="black" fill-opacity="0.04"/>
<path d="M22.4492 362.275H194.679C195.369 362.275 195.929 361.715 195.929 361.025V291.315C195.929 290.625 195.369 290.065 194.679 290.065H22.4492C21.7592 290.065 21.1992 290.625 21.1992 291.315V361.025C21.1992 361.715 21.7592 362.275 22.4492 362.275ZM79.2892 301.105C79.2892 300.145 80.0792 299.355 81.0392 299.355H136.099C137.059 299.355 137.849 300.145 137.849 301.105V313.755C137.849 314.715 137.059 315.505 136.099 315.505H81.0392C80.0792 315.505 79.2892 314.715 79.2892 313.755V301.105ZM79.2892 322.215C79.2892 321.255 80.0792 320.465 81.0392 320.465H136.099C137.059 320.465 137.849 321.255 137.849 322.215V325.595C137.849 326.555 137.059 327.345 136.099 327.345H81.0392C80.0792 327.345 79.2892 326.555 79.2892 325.595V322.215Z" fill="black" fill-opacity="0.04"/>
<path d="M136.089 300.855H81.0293C80.8912 300.855 80.7793 300.967 80.7793 301.105V313.755C80.7793 313.893 80.8912 314.005 81.0293 314.005H136.089C136.227 314.005 136.339 313.893 136.339 313.755V301.105C136.339 300.967 136.227 300.855 136.089 300.855Z" fill="black" fill-opacity="0.04"/>
<path d="M136.089 321.965H81.0293C80.8912 321.965 80.7793 322.077 80.7793 322.215V325.595C80.7793 325.733 80.8912 325.845 81.0293 325.845H136.089C136.227 325.845 136.339 325.733 136.339 325.595V322.215C136.339 322.077 136.227 321.965 136.089 321.965Z" fill="black" fill-opacity="0.04"/>
<path d="M136.089 229.775H81.0293C80.8912 229.775 80.7793 229.887 80.7793 230.025V233.405C80.7793 233.543 80.8912 233.655 81.0293 233.655H136.089C136.227 233.655 136.339 233.543 136.339 233.405V230.025C136.339 229.887 136.227 229.775 136.089 229.775Z" fill="black" fill-opacity="0.04"/>
<path d="M22.4492 270.095H194.679C195.369 270.095 195.929 269.535 195.929 268.845V199.135C195.929 198.445 195.369 197.885 194.679 197.885H22.4492C21.7592 197.885 21.1992 198.445 21.1992 199.135V268.845C21.1992 269.535 21.7592 270.095 22.4492 270.095ZM79.2892 208.925C79.2892 207.965 80.0792 207.175 81.0392 207.175H136.099C137.059 207.175 137.849 207.965 137.849 208.925V221.576C137.849 222.535 137.059 223.326 136.099 223.326H81.0392C80.0792 223.326 79.2892 222.535 79.2892 221.576V208.925ZM79.2892 230.035C79.2892 229.075 80.0792 228.285 81.0392 228.285H136.099C137.059 228.285 137.849 229.075 137.849 230.035V233.415C137.849 234.375 137.059 235.165 136.099 235.165H81.0392C80.0792 235.165 79.2892 234.375 79.2892 233.415V230.035Z" fill="black" fill-opacity="0.04"/>
<path d="M136.089 208.665H81.0293C80.8912 208.665 80.7793 208.777 80.7793 208.915V221.565C80.7793 221.703 80.8912 221.815 81.0293 221.815H136.089C136.227 221.815 136.339 221.703 136.339 221.565V208.915C136.339 208.777 136.227 208.665 136.089 208.665Z" fill="black" fill-opacity="0.04"/>
<path d="M136.089 137.595H81.0293C80.8912 137.595 80.7793 137.707 80.7793 137.845V141.225C80.7793 141.364 80.8912 141.475 81.0293 141.475H136.089C136.227 141.475 136.339 141.364 136.339 141.225V137.845C136.339 137.707 136.227 137.595 136.089 137.595Z" fill="black" fill-opacity="0.04"/>
<path d="M136.089 116.485H81.0293C80.8912 116.485 80.7793 116.597 80.7793 116.735V129.385C80.7793 129.523 80.8912 129.635 81.0293 129.635H136.089C136.227 129.635 136.339 129.523 136.339 129.385V116.735C136.339 116.597 136.227 116.485 136.089 116.485Z" fill="black" fill-opacity="0.04"/>
<path d="M22.4492 177.905H194.679C195.369 177.905 195.929 177.345 195.929 176.655V106.945C195.929 106.255 195.369 105.695 194.679 105.695H22.4492C21.7592 105.695 21.1992 106.255 21.1992 106.945V176.655C21.1992 177.345 21.7592 177.905 22.4492 177.905ZM79.2892 116.735C79.2892 115.775 80.0792 114.985 81.0392 114.985H136.099C137.059 114.985 137.849 115.775 137.849 116.735V129.385C137.849 130.345 137.059 131.135 136.099 131.135H81.0392C80.0792 131.135 79.2892 130.345 79.2892 129.385V116.735ZM79.2892 137.845C79.2892 136.885 80.0792 136.095 81.0392 136.095H136.099C137.059 136.095 137.849 136.885 137.849 137.845V141.225C137.849 142.185 137.059 142.975 136.099 142.975H81.0392C80.0792 142.975 79.2892 142.185 79.2892 141.225V137.845Z" fill="black" fill-opacity="0.04"/>
<path d="M23.23 4.96511C23.23 4.02511 22.12 3.23511 20.8 3.23511H14.93C13.61 3.23511 12.5 4.02511 12.5 4.96511V72.1951C12.5 73.1351 13.61 73.9251 14.93 73.9251H20.8C22.11 73.9251 23.22 73.1351 23.23 72.1951V4.96511ZM20.8 19.3651H14.93V17.8651H20.8V19.3651ZM20.8 13.6151H14.93V12.1151H20.8V13.6151Z" fill="black" fill-opacity="0.04"/>
<path d="M35.4585 23.2651V4.96511C35.4585 4.02511 34.3485 3.23511 33.0285 3.23511H27.1585C25.8385 3.23511 24.7285 4.02511 24.7285 4.96511V72.1951C24.7285 73.1351 25.8385 73.9251 27.1585 73.9251H33.0285C34.3485 73.9251 35.4585 73.1351 35.4585 72.1951V23.2651ZM33.0285 19.3651H27.1585V17.8651H33.0285V19.3651ZM33.0285 13.6151H27.1585V12.1151H33.0285V13.6151Z" fill="black" fill-opacity="0.04"/>
<path d="M79.409 7.50495L96.809 72.445C96.919 72.855 97.249 73.195 97.729 73.405C98.279 73.635 98.939 73.665 99.599 73.495L105.269 71.975C105.929 71.795 106.489 71.435 106.849 70.965C107.169 70.545 107.279 70.085 107.169 69.675L89.769 4.73495C89.659 4.32495 89.329 3.98495 88.849 3.77495C88.539 3.64495 88.179 3.57495 87.819 3.57495C87.549 3.57495 87.259 3.61495 86.979 3.68495L81.309 5.20495C80.039 5.54495 79.169 6.60495 79.409 7.50495ZM90.769 17.815L91.159 19.265L85.489 20.785L85.099 19.335L90.769 17.815ZM89.279 12.265L89.669 13.715L83.999 15.235L83.609 13.785L89.279 12.265Z" fill="black" fill-opacity="0.04"/>
<path d="M51.529 23.2351C51.509 22.2951 50.739 21.5251 49.799 21.5251H38.689C37.729 21.5251 36.959 22.3051 36.959 23.2551V72.1851C36.959 73.1451 37.739 73.9251 38.689 73.9251H49.799C50.759 73.9251 51.539 73.1451 51.539 72.1851V71.3751V71.3551V23.2351H51.529ZM41.959 65.1851H40.459V30.2751H41.959V65.1851ZM48.019 56.8751H46.519V38.5751H48.019V56.8751Z" fill="black" fill-opacity="0.04"/>
<path d="M53.0293 71.3548C53.0293 72.7748 54.4793 73.9248 56.2593 73.9248H74.0493C75.8293 73.9248 77.2793 72.7748 77.2793 71.3548V5.94476C77.2793 4.52476 75.8293 3.37476 74.0493 3.37476H56.2593C54.4793 3.37476 53.0293 4.52476 53.0293 5.94476V71.3548ZM56.2593 8.33476H74.0493V9.83476H56.2593V8.33476ZM69.5793 26.4148V50.8848H68.0793V26.4148H69.5793ZM62.2293 15.3148V61.9848H60.7293V15.3148H62.2293ZM56.2593 67.4648H74.0493V68.9648H56.2593V67.4648Z" fill="black" fill-opacity="0.04"/>
<path d="M107.98 6.9646C107.33 9.1446 105.98 15.4646 108.67 23.4346C110.97 24.8146 113.81 26.5846 117.27 28.8346C117.56 24.1446 118.39 19.9846 119.51 16.3646C115.12 10.2946 109.94 7.7546 107.98 6.9646Z" fill="black" fill-opacity="0.04"/>
<path d="M151.888 6.9646C149.968 7.7346 144.978 10.1946 140.658 15.9746C141.818 19.6246 142.698 23.8246 143.008 28.5746C146.288 26.4546 148.998 24.7646 151.198 23.4346C153.888 15.4646 152.538 9.1446 151.888 6.9646Z" fill="black" fill-opacity="0.04"/>
<path d="M141.559 29.5551C140.719 12.6851 132.539 2.75507 130.139 0.195068C127.729 2.76507 119.459 12.7951 118.709 29.8451C125.509 34.8951 128.559 42.2651 129.929 46.3851C131.319 42.1851 134.479 34.6051 141.559 29.5551Z" fill="black" fill-opacity="0.04"/>
<path d="M116.609 30.1953C107.909 24.5353 103.049 21.8853 101.119 20.8953C100.999 23.3253 100.939 29.4653 102.789 35.8853C104.149 40.6053 107.489 44.3853 111.739 46.4553H128.379C126.919 42.1653 123.689 34.8053 116.609 30.1953Z" fill="black" fill-opacity="0.04"/>
<path d="M157.078 35.8853C158.928 29.4653 158.868 23.3153 158.748 20.8953C156.818 21.8853 151.958 24.5253 143.258 30.1953C136.188 34.8053 132.958 42.1753 131.488 46.4553H148.128C152.368 44.3953 155.708 40.6153 157.078 35.8853Z" fill="black" fill-opacity="0.04"/>
<path d="M112.219 53.9646L114.689 67.4346C115.379 71.1946 118.609 73.9346 122.369 73.9346H137.929C141.689 73.9346 144.919 71.2046 145.609 67.4446L148.079 53.9746H112.229L112.219 53.9646Z" fill="black" fill-opacity="0.04"/>
<path d="M150.119 50.2148L109.309 50.2048V50.2148H150.119Z" fill="black" fill-opacity="0.04"/>
<path d="M109.309 52.4648H150.119C151.359 52.4648 152.359 51.4548 152.359 50.2048C152.359 48.9548 151.349 47.9548 150.119 47.9548H109.309C108.069 47.9548 107.059 48.9648 107.059 50.2048C107.059 51.4448 108.069 52.4648 109.309 52.4648Z" fill="black" fill-opacity="0.04"/>
<path d="M311.811 105.167C320.503 103.918 329.048 106.885 334.242 113.973C336.517 117.077 337.51 120.53 338.033 124.262C338.295 126.135 338.437 128.053 338.569 130.03C338.684 131.746 338.794 133.513 338.974 135.278L339.055 136.034C339.98 144.119 342.962 151.496 347.155 158.324C349.45 162.061 352.604 165.339 355.905 168.53C359.246 171.759 362.715 174.877 365.875 178.434C372.102 185.441 376.95 193.956 376.014 207.272C374.868 215.56 372.813 222.639 368.272 227.942C363.764 233.208 356.615 236.935 344.816 238.097C327.432 239.81 315.392 231.446 306.979 218.953C298.519 206.39 293.821 189.753 291.317 175.372C287.959 156.076 287.353 134.786 294.498 119.377L294.844 118.648C298.261 111.614 304.131 106.272 311.811 105.167Z" fill="#FFE600" stroke="white" stroke-width="3"/>
<path fill-rule="evenodd" clip-rule="evenodd" d="M293.495 117.992C297.068 110.637 303.3 104.876 311.597 103.683C320.756 102.366 329.883 105.487 335.452 113.086C340.407 119.847 339.644 127.98 340.545 135.863C341.44 143.682 344.326 150.852 348.433 157.539C357.188 171.795 379.488 179.715 377.506 207.435C375.193 224.225 369.081 237.214 344.964 239.59C308.816 243.152 294.875 204.55 289.84 175.628C286.416 155.961 285.768 133.899 293.495 117.992Z" stroke="#333333" stroke-width="1.5"/>
<path fill-rule="evenodd" clip-rule="evenodd" d="M296.363 166.676L300.689 164.911C302.191 164.298 303.241 162.91 303.427 161.288L305.778 140.901L312.112 137.021L326.663 146.159C326.663 146.159 324.437 150.814 323.924 155.728C323.41 160.642 323.725 165.879 323.725 165.879C323.689 167.714 324.6 169.436 326.132 170.43L328.717 172.107L325.893 178.745L319.216 187.365L308.517 187.624L301.156 178.831L296.363 166.676Z" fill="white"/>
<path fill-rule="evenodd" clip-rule="evenodd" d="M303.427 161.288L305.778 140.901L312.112 137.021L326.662 146.159C326.662 146.159 324.437 150.814 323.923 155.728C323.41 160.642 323.724 165.879 323.724 165.879C323.708 166.737 318.972 169.749 314.224 168.707C308.821 167.522 303.328 162.152 303.427 161.288Z" fill="#EEEEEE" style="mix-blend-mode:multiply"/>
<path fill-rule="evenodd" clip-rule="evenodd" d="M296.363 166.676L300.701 164.911C302.206 164.298 303.259 162.91 303.446 161.288L305.803 140.901L312.153 137.021L326.743 146.159C326.743 146.159 324.512 150.814 323.997 155.728C323.482 160.642 323.797 165.879 323.797 165.879C323.761 167.714 324.675 169.436 326.211 170.43L328.803 172.107L325.971 178.745L319.277 187.365L308.549 187.624L301.169 178.831L296.363 166.676Z" stroke="#333333" stroke-width="1.5"/>
<path d="M299.791 166.054C300.149 166.69 300.66 167.56 301.27 168.476C302.104 169.729 303.187 171.174 304.359 172.204L304.594 172.404C306.021 173.576 307.982 174.548 309.497 175.207C310.271 175.543 310.962 175.812 311.46 175.997C311.485 176.006 311.509 176.014 311.532 176.022L313.205 181.67L314.193 185.007L315.94 181.998L319.344 176.134L326.747 171.821C326.923 171.947 327.126 172.091 327.352 172.251C328.219 172.864 329.424 173.713 330.781 174.654C333.485 176.53 336.82 178.794 339.264 180.284C340.5 181.038 341.838 181.775 343.17 182.502C344.513 183.234 345.847 183.955 347.123 184.696C349.709 186.199 351.853 187.678 353.124 189.254C353.744 190.024 354.698 191.644 355.901 193.998C357.084 196.313 358.456 199.234 359.916 202.52C362.834 209.092 366.083 217.08 368.848 224.524C371.608 231.956 373.743 238.69 375.188 243.565C375.91 246.002 376.459 247.974 376.828 249.334C376.934 249.726 377.023 250.067 377.099 250.354L366.043 256.896C365.901 256.865 365.734 256.83 365.547 256.786C364.902 256.634 364.026 256.408 363.1 256.108C362.168 255.806 361.219 255.442 360.411 255.02C359.68 254.639 359.169 254.264 358.87 253.932L358.754 253.793C358.362 253.267 357.767 252.24 357.065 250.905C356.378 249.598 355.63 248.08 354.937 246.63C354.245 245.181 353.61 243.81 353.148 242.801C352.917 242.296 352.73 241.883 352.601 241.595C352.536 241.452 352.486 241.339 352.452 241.263C352.435 241.226 352.422 241.197 352.414 241.177C352.409 241.168 352.406 241.161 352.404 241.156C352.403 241.154 352.401 241.152 352.401 241.151V241.149L349.534 241.662V241.664C349.534 241.665 349.533 241.667 349.533 241.669C349.532 241.673 349.532 241.68 349.532 241.689C349.531 241.707 349.529 241.734 349.527 241.768C349.522 241.838 349.516 241.942 349.507 242.077C349.49 242.347 349.466 242.743 349.435 243.247C349.374 244.254 349.289 245.691 349.195 247.416C349.007 250.865 348.781 255.467 348.63 260.072C348.48 264.67 348.403 269.3 348.517 272.794C348.571 274.446 348.671 275.896 348.835 276.983H271.658C271.709 276.641 271.755 276.273 271.794 275.885C271.978 274.065 272.07 271.511 272.098 268.503C272.155 262.471 271.955 254.447 271.666 246.447C271.376 238.441 270.995 230.437 270.686 224.436C270.532 221.436 270.396 218.935 270.298 217.184C270.25 216.309 270.21 215.62 270.183 215.151C270.17 214.917 270.159 214.736 270.152 214.615C270.148 214.554 270.146 214.508 270.144 214.477C270.143 214.462 270.143 214.45 270.142 214.442C270.142 214.438 270.141 214.435 270.141 214.433V214.431C270.139 214.431 270.082 214.434 268.644 214.519L270.141 214.43L270.017 212.328L268.071 213.133L236.136 226.341C236.074 226.35 235.992 226.363 235.893 226.375C235.632 226.407 235.259 226.443 234.824 226.458C233.927 226.487 232.883 226.42 232.019 226.12C231.185 225.83 230.666 225.384 230.44 224.704C230.189 223.948 230.179 222.551 231.23 220.114L231.232 220.109C235.314 210.569 244.186 200.18 253.224 191.53C261.974 183.156 270.681 176.6 274.965 174.165L275.366 173.942C279.176 171.876 284.875 169.982 289.995 168.531C294.246 167.326 298.011 166.451 299.791 166.054Z" fill="white" stroke="white" stroke-width="3"/>
<path fill-rule="evenodd" clip-rule="evenodd" d="M318.247 175.662C318.247 175.662 317.96 185.84 322.155 185.43C326.349 185.02 332.818 174.239 332.818 174.239L318.247 175.662Z" fill="#EEEEEE" style="mix-blend-mode:multiply"/>
<path fill-rule="evenodd" clip-rule="evenodd" d="M294.022 165.894C294.022 165.894 300.512 184.466 305.896 184.45C311.28 184.435 312.967 175.756 312.967 175.756L304.324 174.724L294.022 165.894Z" fill="#EEEEEE" style="mix-blend-mode:multiply"/>
<path fill-rule="evenodd" clip-rule="evenodd" d="M300.283 164.409C300.453 164.372 300.622 164.453 300.705 164.608C301.254 165.639 303.379 169.464 305.546 171.245C308.063 173.314 312.755 174.865 312.755 174.865L314.643 181.244L318.247 175.037L326.829 170.038C326.829 170.038 335.24 176.072 340.045 179.003C344.852 181.934 351.374 184.693 354.292 188.313C357.209 191.934 364.704 209.06 370.254 224.002C375.804 238.944 378.836 251.07 378.836 251.07L366.306 258.484C366.306 258.484 359.441 257.219 357.553 254.69C355.665 252.163 351.03 241.76 351.03 241.76C351.03 241.76 348.627 278.483 351.03 278.483H269.501C272.42 278.483 268.644 214.519 268.644 214.519L236.547 227.795C236.547 227.795 225.391 229.864 229.853 219.519C238.263 199.864 266.069 177.279 274.651 172.624C282.584 168.321 297.999 164.901 300.283 164.409Z" stroke="#333333" stroke-width="1.5"/>
<path d="M225.928 225.4V225.401C225.925 225.403 225.919 225.409 225.91 225.416C225.892 225.431 225.863 225.456 225.824 225.49C225.746 225.557 225.63 225.66 225.49 225.792C225.208 226.059 224.841 226.436 224.488 226.878C223.761 227.788 223.353 228.654 223.377 229.312L223.387 229.441L223.391 229.47L223.393 229.499C223.559 231.328 224.956 232.824 226.673 233.956C227.498 234.5 228.32 234.907 228.938 235.178C229.118 235.257 229.279 235.323 229.416 235.377L242.069 230.047L241.421 220.744C240.804 220.61 239.975 220.431 239.058 220.24C237.126 219.838 234.847 219.386 233.35 219.163C231.909 218.949 230.37 218.903 229.117 219.079C228.491 219.167 227.988 219.304 227.62 219.469C227.247 219.636 227.102 219.793 227.053 219.868L226.95 220.06C226.719 220.557 226.563 221.396 226.501 222.347C226.468 222.843 226.465 223.297 226.469 223.627C226.472 223.792 226.476 223.923 226.48 224.012C226.482 224.056 226.484 224.09 226.485 224.111C226.486 224.121 226.486 224.128 226.486 224.132V224.135L226.536 224.912L225.928 225.4ZM225.928 225.4L225.929 225.401L225.931 225.399C225.931 225.399 225.93 225.399 225.928 225.4Z" fill="#FFE600" stroke="white" stroke-width="3"/>
<path fill-rule="evenodd" clip-rule="evenodd" d="M242.84 219.52C242.84 219.52 236.661 218.14 233.571 217.68C230.482 217.22 226.82 217.45 225.79 219.06C224.76 220.669 224.989 224.232 224.989 224.232C224.989 224.232 221.557 226.99 221.9 229.634C222.358 234.691 229.452 236.99 229.452 236.99L243.641 231.014L242.84 219.52Z" stroke="#333333" stroke-width="1.5"/>
<path d="M314.642 181.245L312.02 187.942C311.522 189.212 311.275 190.567 311.292 191.931L311.495 208.715" stroke="#333333" stroke-width="1.5"/>
<path d="M298.304 166.393C296.929 170.557 294.238 178.927 293.097 184.02V184.021C291.981 189.003 290.152 197.83 289.219 202.369C288.723 204.782 290.336 207.129 292.776 207.508C297.298 208.209 306.252 209.468 312.41 209.468C318.688 209.468 328.14 208.805 332.621 208.461L332.62 208.46C334.88 208.287 336.577 206.345 336.465 204.088C336.326 201.294 336.01 196.642 335.316 192.219L335.173 191.338C334.566 187.765 333.529 182.849 332.648 178.846C332.373 177.593 332.111 176.427 331.883 175.415C332.385 175.761 332.9 176.113 333.419 176.466C333.453 176.59 333.493 176.735 333.539 176.9C333.707 177.509 333.948 178.391 334.244 179.482C334.836 181.666 335.644 184.687 336.511 188.042C338.249 194.768 340.209 202.777 341.142 208.057C342.595 216.282 344.467 234.161 345.238 241.812C345.478 244.194 347.043 246.193 349.217 247.025C348.947 252.029 348.587 260.192 348.487 267.343C348.434 271.218 348.456 274.83 348.614 277.487C348.678 278.556 348.766 279.511 348.89 280.283C348.432 280.316 347.903 280.356 347.308 280.398C345.01 280.564 341.73 280.796 337.8 281.065C329.939 281.603 319.48 282.287 309.083 282.869C298.681 283.451 288.358 283.93 280.763 284.062C276.957 284.129 273.876 284.107 271.821 283.973C271.342 283.941 270.939 283.903 270.606 283.863C270.695 283.503 270.772 283.122 270.839 282.736C271.03 281.638 271.187 280.266 271.315 278.692C271.573 275.541 271.724 271.48 271.791 266.973C271.916 258.533 271.741 248.455 271.395 239.696C273.161 239.609 274.73 238.394 275.21 236.613C277.094 229.623 282.464 209.668 283.315 206.2V206.199C284.324 202.088 288.245 190.382 290.499 183.925C291.63 180.685 293.062 176.241 294.208 172.618C294.782 170.805 295.286 169.193 295.646 168.034C295.778 167.608 295.889 167.242 295.979 166.951C296.848 166.737 297.631 166.549 298.304 166.393Z" fill="#FFE600" stroke="white" stroke-width="3"/>
<path fill-rule="evenodd" clip-rule="evenodd" d="M294.561 184.348C295.98 178.013 299.86 166.442 300.483 164.599C300.521 164.487 300.428 164.378 300.313 164.403C299.62 164.552 297.562 165.004 294.825 165.691L294.789 165.728C294.789 165.728 291.33 176.995 289.083 183.43C286.837 189.865 282.889 201.646 281.859 205.842C281.013 209.288 275.65 229.217 273.762 236.223C273.393 237.59 272.028 238.433 270.647 238.146L269.826 237.975C270.614 256.231 271.222 278.483 269.501 278.483H351.03C349.129 278.483 350.236 255.495 350.781 245.896L350.583 245.86C348.512 245.474 346.943 243.766 346.731 241.661C345.962 234.033 344.085 216.089 342.619 207.796C340.732 197.106 334.724 175.555 334.724 175.555L334.704 175.525C332.86 174.278 331.044 173.015 329.619 172.015L329.575 172.049C329.575 172.049 332.493 184.52 333.695 191.589C334.474 196.177 334.82 201.201 334.967 204.162C335.039 205.614 333.949 206.855 332.507 206.965C328.019 207.309 318.623 207.968 312.411 207.968C306.384 207.968 297.537 206.729 293.007 206.026C291.42 205.78 290.364 204.251 290.689 202.671C291.622 198.13 293.448 189.315 294.561 184.348Z" stroke="#333333" stroke-width="1.5"/>
<path d="M368.26 249.864C371.644 249.586 374.6 249.729 376.909 250.147C379.282 250.577 380.758 251.258 381.409 251.873C382.28 252.696 383.501 254.16 384.381 255.717C384.819 256.492 385.145 257.242 385.314 257.909C385.486 258.586 385.471 259.069 385.364 259.39V259.391C385.1 260.186 384.634 260.428 384.204 260.532C383.959 260.591 383.717 260.602 383.531 260.594C383.441 260.591 383.37 260.584 383.329 260.579C383.313 260.577 383.302 260.574 383.296 260.573L380.652 260.043L381.608 262.575V262.576C381.609 262.579 381.612 262.585 381.615 262.594C381.622 262.611 381.632 262.64 381.646 262.679C381.672 262.758 381.711 262.877 381.756 263.026C381.846 263.328 381.955 263.743 382.035 264.202C382.21 265.2 382.174 266.018 381.946 266.457C381.646 266.921 381.113 267.112 380.245 267.033C379.83 266.995 379.432 266.898 379.13 266.804C378.982 266.759 378.864 266.717 378.787 266.687C378.749 266.673 378.721 266.661 378.705 266.654C378.7 266.652 378.696 266.65 378.693 266.649L358.233 257.276L356.803 255.39C356.789 255.34 356.773 255.282 356.757 255.219C356.689 254.951 356.605 254.592 356.543 254.216C356.479 253.83 356.445 253.475 356.452 253.2C356.454 253.131 356.459 253.078 356.464 253.038C356.48 253.027 356.496 253.013 356.517 252.999C356.671 252.894 356.901 252.759 357.212 252.601C357.832 252.287 358.704 251.922 359.788 251.559C361.819 250.879 364.533 250.228 367.635 249.921L368.26 249.864Z" fill="#FFE600" stroke="white" stroke-width="3"/>
<path fill-rule="evenodd" clip-rule="evenodd" d="M357.266 258.484L355.436 256.071C355.436 256.071 354.52 253.082 355.206 252.163C355.893 251.243 361.157 248.944 368.137 248.369C375.117 247.795 380.495 248.944 382.44 250.783C384.385 252.622 387.704 257.105 386.788 259.863C385.873 262.622 383.012 262.047 383.012 262.047C383.012 262.047 384.271 265.381 383.241 267.219C381.753 269.633 378.092 268.024 378.092 268.024L357.266 258.484Z" stroke="#333333" stroke-width="1.5"/>
<path fill-rule="evenodd" clip-rule="evenodd" d="M296.047 270.698H280.349C279.964 270.698 279.611 270.914 279.435 271.258L277.152 275.719H299.244L296.962 271.258C296.786 270.914 296.433 270.698 296.047 270.698Z" fill="white" stroke="#333333" stroke-width="1.5"/>
<path fill-rule="evenodd" clip-rule="evenodd" d="M299.765 278.478H276.728C276.35 278.478 276.045 278.071 276.045 277.568V275.626C276.045 275.122 276.35 274.715 276.728 274.715H299.765C300.142 274.715 300.448 275.122 300.448 275.626V277.568C300.448 278.071 300.142 278.478 299.765 278.478Z" fill="white" stroke="#333333" stroke-width="1.5"/>
<path fill-rule="evenodd" clip-rule="evenodd" d="M322.182 278.484L324.733 245.631H302.642L305.194 278.484H322.182Z" fill="white" stroke="#333333" stroke-width="1.5"/>
<path d="M313.646 256.82C316.326 256.82 318.506 258.999 318.506 261.694C318.506 264.39 316.327 266.569 313.646 266.569C310.967 266.569 308.788 264.39 308.788 261.694C308.788 258.999 310.967 256.821 313.646 256.82Z" stroke="white" stroke-width="3"/>
<path fill-rule="evenodd" clip-rule="evenodd" d="M320.006 261.695C320.006 265.215 317.159 268.069 313.647 268.069C310.135 268.069 307.288 265.215 307.288 261.695C307.288 258.174 310.135 255.32 313.647 255.32C317.159 255.32 320.006 258.174 320.006 261.695Z" stroke="#333333" stroke-width="1.5"/>
<path fill-rule="evenodd" clip-rule="evenodd" d="M334.381 273.771C334.381 273.771 353.069 277.281 360.335 278.622C375.992 280.683 381.217 271.236 377.952 265.274C374.687 259.312 365.369 257.631 359.853 258.269C357.434 258.549 343.106 261.765 343.106 261.765C343.106 261.765 334.828 263.928 333.613 263.623C331.449 263.078 322.373 259.378 320.868 259.227C319.364 259.076 307.954 261.618 307.685 262.101C307.417 262.584 307.307 263.114 307.821 263.566C308.291 263.98 315.881 263.484 317.264 263.365C317.278 263.364 317.278 264.339 317.264 264.342C316.231 264.555 308.954 267.124 308.564 267.385C308.173 267.645 308.315 269.039 308.847 269.281C309.379 269.522 317.664 267.733 317.664 267.733C317.68 267.731 317.678 268.589 317.664 268.595C317.664 268.595 310.036 271.614 309.689 272.118C309.343 272.622 310.179 273.499 310.742 273.634C311.109 273.722 312.252 272.797 316.014 272.744C318.014 272.716 320.022 273.205 321.72 273.631C326.612 274.855 334.381 273.771 334.381 273.771Z" fill="white"/>
<path fill-rule="evenodd" clip-rule="evenodd" d="M377.019 274.08C379.17 271.351 379.421 267.959 377.951 265.274C374.686 259.312 365.368 257.631 359.852 258.269C357.433 258.549 375.255 261.537 377.019 274.08Z" fill="#EEEEEE" style="mix-blend-mode:multiply"/>
<path fill-rule="evenodd" clip-rule="evenodd" d="M321.72 273.631C326.612 274.855 334.381 273.771 334.381 273.771C334.381 273.771 353.069 277.281 360.335 278.622C375.992 280.683 381.217 271.236 377.952 265.274C374.687 259.312 365.369 257.631 359.853 258.269C357.434 258.549 343.106 261.765 343.106 261.765C343.106 261.765 334.828 263.928 333.613 263.623C331.449 263.078 322.373 259.378 320.868 259.227C319.364 259.076 307.954 261.618 307.685 262.101C307.417 262.584 307.307 263.114 307.821 263.566C308.291 263.98 315.881 263.484 317.264 263.365C317.278 263.364 317.278 264.339 317.264 264.342C316.231 264.555 308.954 267.124 308.564 267.385C308.173 267.645 308.315 269.039 308.847 269.281C309.379 269.522 317.664 267.733 317.664 267.733C317.68 267.731 317.678 268.589 317.664 268.595C317.664 268.595 310.036 271.614 309.689 272.118C309.343 272.622 310.179 273.499 310.742 273.634C311.109 273.722 312.252 272.797 316.014 272.744C318.014 272.716 320.022 273.205 321.72 273.631Z" stroke="#333333" stroke-width="1.5"/>
<path fill-rule="evenodd" clip-rule="evenodd" d="M299.318 208.373L300.916 207.58L305.005 204.343L313.018 220.656L306.748 219.452L305.282 220.178C305.824 226.067 302.777 231.951 297.181 234.725C293.644 236.477 289.58 236.324 286.097 235.21L277.096 216.886C278.336 213.432 280.687 210.098 284.224 208.346C288.851 206.053 295.195 205.9 299.318 208.373Z" fill="white"/>
<path d="M308.994 215.798L310.362 218.618L307.031 217.978L306.535 217.884L306.082 218.107L304.617 218.834L303.695 219.291L303.789 220.315C304.276 225.611 301.534 230.893 296.515 233.381C293.614 234.818 290.228 234.819 287.154 233.961L278.749 216.846L279.205 215.798H308.994Z" fill="#FFE600" stroke="white" stroke-width="3"/>
<path d="M278.22 214.298H309.932" stroke="#333333" stroke-width="1.5"/>
<path fill-rule="evenodd" clip-rule="evenodd" d="M299.318 208.373L300.916 207.58L305.005 204.343L313.018 220.656L306.748 219.452L305.282 220.178C305.824 226.067 302.777 231.951 297.181 234.725C293.644 236.477 289.58 236.324 286.097 235.21L277.096 216.886C278.336 213.432 280.687 210.098 284.224 208.346C288.851 206.053 295.195 205.9 299.318 208.373Z" stroke="#333333" stroke-width="1.5"/>
<path fill-rule="evenodd" clip-rule="evenodd" d="M280.926 203.338L281.98 205.318C286.842 202.709 291.08 201.868 294.234 202.886C296.995 203.777 298.059 205.811 298.069 205.832L305.374 220.702L307.379 219.708L300.075 204.838C300.017 204.721 298.616 201.941 294.918 200.747C291.12 199.522 286.413 200.393 280.926 203.338" fill="white"/>
<path fill-rule="evenodd" clip-rule="evenodd" d="M280.926 203.338L281.98 205.318C286.842 202.709 291.08 201.868 294.234 202.886C296.995 203.777 298.059 205.811 298.069 205.832L305.374 220.702L307.379 219.708L300.075 204.838C300.017 204.721 298.616 201.941 294.918 200.747C291.12 199.522 286.413 200.393 280.926 203.338Z" stroke="#333333" stroke-width="1.5"/>
<path d="M383.013 262.047C383.013 262.047 381.983 259.633 379.923 257.22C376.261 253.541 369.968 252.392 369.968 252.392" stroke="#333333" stroke-width="1.5"/>
<path fill-rule="evenodd" clip-rule="evenodd" d="M237.347 217.68C242.897 213.658 264.066 203.37 268.014 199.29C271.961 195.21 279.325 190.848 280.927 190.101C282.529 189.354 286.218 187.96 287.247 188.651C287.791 189.014 292.009 190.552 292.642 192.083C293.311 193.703 293.54 195.47 293.306 197.208L292.73 201.473C292.73 201.473 292.501 202.164 291.757 202.795C291.013 203.428 290.095 203.355 290.095 203.355C290.095 203.355 289.24 204.749 288.439 205.382C287.637 206.014 286.03 206.259 286.03 206.259C286.03 206.259 285.464 207.335 284.663 207.968C283.862 208.6 282.431 208.83 282.431 208.83L275.108 209.404C275.108 209.404 260.805 230.783 251.822 237.622C242.84 244.461 231.511 246.128 228.479 240.209C225.447 234.289 231.797 221.703 237.347 217.68Z" fill="white"/>
<path fill-rule="evenodd" clip-rule="evenodd" d="M228.479 240.209C225.447 234.289 231.797 221.703 237.347 217.68C242.897 213.658 264.066 203.371 268.014 199.29C271.961 195.21 279.325 190.848 280.927 190.101C282.529 189.354 287.015 188.169 288.045 188.859C288.588 189.222 292.097 191.116 292.73 192.646C293.399 194.266 293.54 195.47 293.306 197.208L292.73 201.474C292.73 201.474 292.501 202.164 291.757 202.796C291.013 203.428 290.095 203.355 290.095 203.355C290.095 203.355 289.24 204.75 288.439 205.382C287.637 206.014 286.03 206.26 286.03 206.26C286.03 206.26 285.464 207.335 284.663 207.968C283.862 208.6 282.431 208.83 282.431 208.83L275.108 209.405C275.108 209.405 260.805 230.783 251.822 237.622C242.84 244.461 231.511 246.128 228.479 240.209Z" stroke="#333333" stroke-width="1.5"/>
<path d="M290.095 203.355C290.095 203.355 290.155 200.324 289.754 198.543C289.354 196.761 287.638 194.347 287.638 194.347" stroke="#333333" stroke-width="1.5"/>
<path d="M286.09 206.172C286.09 206.172 286.15 203.14 285.749 201.359C285.349 199.577 283.633 197.163 283.633 197.163" stroke="#333333" stroke-width="1.5"/>
<path d="M281.513 208.815C281.513 208.815 281.573 205.784 281.172 204.003C280.772 202.221 279.056 199.807 279.056 199.807" stroke="#333333" stroke-width="1.5"/>
<path d="M351.029 241.76L348.112 234.864C348.112 234.864 346.395 226.071 349.485 218.485" stroke="#333333" stroke-width="1.5"/>
<path fill-rule="evenodd" clip-rule="evenodd" d="M332.817 174.238C329.57 172.005 326.829 170.038 326.829 170.038L318.247 175.038L323.281 181.474L332.817 174.238Z" fill="white"/>
<path fill-rule="evenodd" clip-rule="evenodd" d="M332.817 174.238C329.57 172.005 326.829 170.038 326.829 170.038L318.247 175.038L323.281 181.474L332.817 174.238Z" stroke="#333333" stroke-width="1.5"/>
<path fill-rule="evenodd" clip-rule="evenodd" d="M307.09 181.331L312.754 174.865C312.754 174.865 308.062 173.314 305.545 171.245C303.028 169.176 300.568 164.349 300.568 164.349C300.568 164.349 297.844 164.917 294.022 165.894C294.022 165.894 296.019 171.331 299.538 175.297C303.056 179.262 307.09 181.331 307.09 181.331" fill="white"/>
<path fill-rule="evenodd" clip-rule="evenodd" d="M307.09 181.33L312.754 174.865C312.754 174.865 308.062 173.314 305.545 171.245C303.406 169.487 301.309 165.737 300.726 164.65C300.629 164.47 300.43 164.377 300.23 164.421C299.39 164.602 297.051 165.119 294.022 165.893C294.022 165.893 296.019 171.331 299.538 175.297C303.056 179.262 307.09 181.33 307.09 181.33Z" stroke="#333333" stroke-width="1.5"/>
<path fill-rule="evenodd" clip-rule="evenodd" d="M201.696 278.666L202.359 271.851L196.618 253.895L185.69 278.666" fill="white"/>
<path d="M201.696 278.666L202.359 271.851L196.618 253.895L185.69 278.666" stroke="#333333" stroke-width="1.5"/>
<path fill-rule="evenodd" clip-rule="evenodd" d="M199.651 278.698L202.359 271.637L195.415 257.368L191.855 265.612" fill="#EEEEEE" style="mix-blend-mode:multiply"/>
<path d="M221.829 238.652L230.364 277.166H200.928L192.392 238.652H221.829Z" fill="#FFE600" stroke="white" stroke-width="3"/>
<path fill-rule="evenodd" clip-rule="evenodd" d="M200.344 278.666C199.981 278.666 199.668 278.414 199.589 278.06L190.732 238.094C190.625 237.61 190.993 237.152 191.487 237.152H222.413C222.775 237.152 223.089 237.404 223.167 237.758L232.024 277.725C232.131 278.208 231.764 278.666 231.27 278.666H200.344Z" stroke="#333333" stroke-width="1.5"/>
<path fill-rule="evenodd" clip-rule="evenodd" d="M201.68 263.726L197.807 246.169C197.721 245.779 198.012 245.409 198.403 245.409H219.108C219.395 245.409 219.643 245.612 219.705 245.898L223.579 263.455C223.664 263.846 223.373 264.216 222.982 264.216H202.277C201.99 264.216 201.742 264.012 201.68 263.726" fill="white"/>
<path d="M202.358 245.409H198.536C198.06 245.409 197.706 245.888 197.81 246.395L198.497 249.767" stroke="#333333" stroke-width="1.5"/>
<path d="M220.626 249.767L219.857 246.043C219.78 245.672 219.475 245.409 219.121 245.409H214.918" stroke="#333333" stroke-width="1.5"/>
<path d="M219.028 263.987H222.85C223.327 263.987 223.68 263.507 223.576 263.001L222.889 259.629" stroke="#333333" stroke-width="1.5"/>
<path d="M200.76 259.629L201.529 263.352C201.606 263.723 201.911 263.987 202.265 263.987H206.468" stroke="#333333" stroke-width="1.5"/>
<path fill-rule="evenodd" clip-rule="evenodd" d="M217.559 254.583H211.913C211.547 254.583 211.229 254.325 211.15 253.963L210.141 249.353C210.032 248.859 210.404 248.39 210.904 248.39H216.55C216.917 248.39 217.234 248.648 217.314 249.011L218.323 253.619C218.431 254.114 218.06 254.583 217.559 254.583Z" stroke="#333333" stroke-width="1.5"/>
<path fill-rule="evenodd" clip-rule="evenodd" d="M215.375 252.289H213.258L212.863 250.454H214.979L215.375 252.289Z" stroke="#333333" stroke-width="1.5"/>
<path fill-rule="evenodd" clip-rule="evenodd" d="M217.429 259.4H215.313L214.918 257.565H217.034L217.429 259.4Z" stroke="#333333" stroke-width="1.5"/>
<path fill-rule="evenodd" clip-rule="evenodd" d="M219.386 261.693H213.74C213.374 261.693 213.056 261.435 212.977 261.073L211.967 256.464C211.859 255.969 212.231 255.5 212.73 255.5H218.377C218.743 255.5 219.061 255.759 219.141 256.121L220.15 260.729C220.258 261.224 219.886 261.693 219.386 261.693Z" stroke="#333333" stroke-width="1.5"/>
<path fill-rule="evenodd" clip-rule="evenodd" d="M209.111 254.583H203.465C203.099 254.583 202.781 254.325 202.702 253.963L201.692 249.353C201.584 248.859 201.956 248.39 202.455 248.39H208.102C208.468 248.39 208.786 248.648 208.865 249.011L209.875 253.619C209.983 254.114 209.611 254.583 209.111 254.583Z" stroke="#333333" stroke-width="1.5"/>
<path fill-rule="evenodd" clip-rule="evenodd" d="M206.926 252.289H204.81L204.414 250.454H206.53L206.926 252.289Z" stroke="#333333" stroke-width="1.5"/>
<path fill-rule="evenodd" clip-rule="evenodd" d="M207.61 261.464H205.495L205.099 259.629H207.215L207.61 261.464Z" stroke="#333333" stroke-width="1.5"/>
<path fill-rule="evenodd" clip-rule="evenodd" d="M209.437 258.712H207.706L207.382 257.335H209.113L209.437 258.712Z" stroke="#333333" stroke-width="1.5"/>
<path fill-rule="evenodd" clip-rule="evenodd" d="M195.549 503.084H394.982V288.46H195.549V503.084Z" fill="white"/>
<path fill-rule="evenodd" clip-rule="evenodd" d="M195.549 306.83H394.982V288.46H195.549V306.83Z" fill="white"/>
<path fill-rule="evenodd" clip-rule="evenodd" d="M195.549 503.084H394.981V288.46H195.549V503.084Z" stroke="#333333" stroke-width="1.5"/>
<path fill-rule="evenodd" clip-rule="evenodd" d="M410.896 297.74H179.633C177.376 297.74 175.546 295.902 175.546 293.635V282.191C175.546 279.923 177.376 278.085 179.633 278.085H410.896C413.153 278.085 414.983 279.923 414.983 282.191V293.635C414.983 295.902 413.153 297.74 410.896 297.74" fill="white"/>
<path fill-rule="evenodd" clip-rule="evenodd" d="M410.896 297.74H179.633C177.376 297.74 175.546 295.902 175.546 293.635V282.191C175.546 279.923 177.376 278.085 179.633 278.085H410.896C413.153 278.085 414.983 279.923 414.983 282.191V293.635C414.983 295.902 413.153 297.74 410.896 297.74Z" stroke="#333333" stroke-width="1.5"/>
<path fill-rule="evenodd" clip-rule="evenodd" d="M392.848 473.4C392.848 473.4 367.27 454.319 363.764 446.096C360.259 437.873 367.487 438.802 367.487 438.802C367.487 438.802 357.158 424.094 359.899 419.235C362.641 414.375 368.345 420.581 368.345 420.581C368.345 420.581 363.553 400.686 367.719 399.579C375.479 397.518 381.846 418.93 381.846 418.93C381.846 418.93 381.275 410.04 386.132 411.238C393.457 413.043 389.582 432.182 389.582 432.182C389.582 432.182 391.916 428.789 395.934 432.017C403.141 437.81 392.848 473.4 392.848 473.4" fill="white"/>
<path fill-rule="evenodd" clip-rule="evenodd" d="M392.848 473.4C392.848 473.4 367.27 454.319 363.764 446.096C360.259 437.873 367.487 438.802 367.487 438.802C367.487 438.802 357.158 424.094 359.899 419.235C362.641 414.375 368.345 420.581 368.345 420.581C368.345 420.581 363.553 400.686 367.719 399.579C375.479 397.518 381.846 418.93 381.846 418.93C381.846 418.93 381.275 410.04 386.132 411.238C393.457 413.043 389.582 432.182 389.582 432.182C389.582 432.182 391.916 428.789 395.934 432.017C403.141 437.81 392.848 473.4 392.848 473.4Z" stroke="#333333" stroke-width="1.5"/>
<path fill-rule="evenodd" clip-rule="evenodd" d="M395.129 475.571C395.129 475.571 377.691 475.912 368.351 473.4C366.282 472.844 364.488 471.807 363.507 470.978C358.097 466.412 364.733 466.057 364.733 466.057C364.733 466.057 349.711 457.952 349.894 453.496C350.077 449.04 355.955 448.93 355.955 448.93C355.955 448.93 347.706 439.291 350.904 435.402C354.976 430.451 365.214 440.137 365.214 440.137C365.214 440.137 364.066 436.55 367.907 435.628C373.699 434.237 379.614 454.812 379.614 454.812C379.614 454.812 378.855 446.411 382.833 447.239C389.973 448.725 395.129 475.571 395.129 475.571" fill="white"/>
<path fill-rule="evenodd" clip-rule="evenodd" d="M395.129 475.571C395.129 475.571 377.691 475.912 368.351 473.4C366.282 472.844 364.488 471.807 363.507 470.978C358.097 466.412 364.733 466.057 364.733 466.057C364.733 466.057 349.711 457.952 349.894 453.496C350.077 449.04 355.955 448.93 355.955 448.93C355.955 448.93 347.706 439.291 350.904 435.402C354.976 430.451 365.214 440.137 365.214 440.137C365.214 440.137 364.066 436.55 367.907 435.628C373.699 434.237 379.614 454.812 379.614 454.812C379.614 454.812 378.855 446.411 382.833 447.239C389.973 448.725 395.129 475.571 395.129 475.571Z" stroke="#333333" stroke-width="1.5"/>
<path fill-rule="evenodd" clip-rule="evenodd" d="M395.292 477.234C395.292 477.234 418.557 457.282 421.396 449.245C424.235 441.207 417.414 442.531 417.414 442.531C417.414 442.531 426.353 427.909 423.452 423.453C420.55 418.996 415.498 425.249 415.498 425.249C415.498 425.249 418.856 406.027 414.826 405.228C407.319 403.74 402.553 424.501 402.553 424.501C402.553 424.501 402.559 416.007 398.011 417.442C391.151 419.607 395.992 437.58 395.992 437.58C395.992 437.58 393.46 430.862 389.833 434.179C383.325 440.129 395.292 477.234 395.292 477.234" fill="white"/>
<path fill-rule="evenodd" clip-rule="evenodd" d="M395.292 477.234C395.292 477.234 418.557 457.282 421.396 449.245C424.235 441.207 417.414 442.531 417.414 442.531C417.414 442.531 426.353 427.909 423.452 423.453C420.55 418.996 415.498 425.249 415.498 425.249C415.498 425.249 418.856 406.027 414.826 405.228C407.319 403.74 402.553 424.501 402.553 424.501C402.553 424.501 402.559 416.007 398.011 417.442C391.151 419.607 395.992 437.58 395.992 437.58C395.992 437.58 393.46 430.862 389.833 434.179C383.325 440.129 395.292 477.234 395.292 477.234Z" stroke="#333333" stroke-width="1.5"/>
<path fill-rule="evenodd" clip-rule="evenodd" d="M397.698 473.332C397.698 473.332 413.013 473.562 422.314 473.178C426.061 473.024 428.702 472.9 429.174 472.421C431.211 470.355 425.98 468.702 425.98 468.702C425.98 468.702 434.389 469.613 435.601 467.67C436.814 465.726 433.566 464.96 433.566 464.96C433.566 464.96 441.485 462.653 441.107 460.96C440.403 457.807 431.656 459.863 431.656 459.863C431.656 459.863 433.494 457.439 432.174 455.966C430.182 453.744 423.396 458.904 423.396 458.904C423.396 458.904 425.74 455.32 424.398 453.786C419.105 447.737 397.698 473.332 397.698 473.332" fill="white"/>
<path fill-rule="evenodd" clip-rule="evenodd" d="M397.698 473.332C397.698 473.332 413.013 473.562 422.314 473.178C426.061 473.024 428.702 472.9 429.174 472.421C431.211 470.355 425.98 468.702 425.98 468.702C425.98 468.702 434.389 469.613 435.601 467.67C436.814 465.726 433.566 464.96 433.566 464.96C433.566 464.96 441.485 462.653 441.107 460.96C440.403 457.807 431.656 459.863 431.656 459.863C431.656 459.863 433.494 457.439 432.174 455.966C430.182 453.744 423.396 458.904 423.396 458.904C423.396 458.904 425.74 455.32 424.398 453.786C419.105 447.737 397.698 473.332 397.698 473.332Z" stroke="#333333" stroke-width="1.5"/>
<path d="M420.498 474.9C421.783 477.931 422.777 481.541 422.726 484.714C422.621 491.225 419.796 497.14 415.194 501.583H373.85C369.124 497.058 366.238 491.022 366.157 484.432L366.158 483.773C366.21 480.516 366.819 477.671 368.066 474.9H420.498Z" fill="#FFE600" stroke="white" stroke-width="3"/>
<path fill-rule="evenodd" clip-rule="evenodd" d="M415.791 503.083H373.256C367.838 498.111 364.538 491.262 364.658 483.749C364.719 479.955 365.496 476.648 367.116 473.4H421.477C422.993 476.7 424.287 480.944 424.226 484.738C424.111 491.895 420.913 498.348 415.791 503.083Z" stroke="#333333" stroke-width="1.5"/>
<path fill-rule="evenodd" clip-rule="evenodd" d="M278.171 430.974H335.156V425.982H278.171V430.974Z" fill="white"/>
<path fill-rule="evenodd" clip-rule="evenodd" d="M278.171 430.974H335.156V425.982H278.171V430.974Z" stroke="#333333" stroke-width="1.5"/>
<path fill-rule="evenodd" clip-rule="evenodd" d="M271.306 475.11H342.022V470.119H271.306V475.11Z" fill="white"/>
<path fill-rule="evenodd" clip-rule="evenodd" d="M271.306 475.11H342.022V470.119H271.306V475.11Z" stroke="#333333" stroke-width="1.5"/>
<path fill-rule="evenodd" clip-rule="evenodd" d="M282.916 389.317L264.628 503.076H270.028L288.317 389.317H282.916Z" fill="white"/>
<path fill-rule="evenodd" clip-rule="evenodd" d="M282.916 389.317L264.628 503.076H270.028L288.317 389.317H282.916Z" stroke="#333333" stroke-width="1.5"/>
<path d="M265.643 496.899H270.963" stroke="#333333" stroke-width="1.5"/>
<path fill-rule="evenodd" clip-rule="evenodd" d="M325.371 389.317L343.659 503.076H349.059L330.771 389.317H325.371Z" fill="white"/>
<path fill-rule="evenodd" clip-rule="evenodd" d="M330.771 389.316L349.059 503.076H343.659L325.371 389.316H330.771Z" stroke="#333333" stroke-width="1.5"/>
<path d="M348.045 496.899H342.724" stroke="#333333" stroke-width="1.5"/>
<path d="M306.931 370.703C317.031 370.703 324.965 371.337 329.767 371.856C331.974 372.095 333.657 373.973 333.657 376.222V383.079C333.657 385.51 331.695 387.47 329.291 387.47H284.038C281.633 387.47 279.673 385.51 279.672 383.079V376.244C279.672 373.989 281.361 372.11 283.576 371.875C288.515 371.352 296.71 370.703 306.931 370.703Z" fill="#FFE600" stroke="white" stroke-width="3"/>
<path fill-rule="evenodd" clip-rule="evenodd" d="M329.291 388.97H284.038C280.799 388.97 278.172 386.332 278.172 383.078V376.244C278.172 373.228 280.433 370.7 283.417 370.383C288.399 369.856 296.647 369.203 306.931 369.203C317.093 369.203 325.082 369.842 329.929 370.365C332.906 370.687 335.157 373.216 335.157 376.223V383.078C335.157 386.332 332.53 388.97 329.291 388.97Z" stroke="#333333" stroke-width="1.5"/>
<path fill-rule="evenodd" clip-rule="evenodd" d="M332.254 392.963H281.189C279.586 392.963 278.287 391.658 278.287 390.048C278.287 388.437 279.586 387.133 281.189 387.133H332.254C333.857 387.133 335.157 388.437 335.157 390.048C335.157 391.658 333.857 392.963 332.254 392.963" fill="white"/>
<path fill-rule="evenodd" clip-rule="evenodd" d="M332.254 392.963H281.189C279.586 392.963 278.287 391.658 278.287 390.048C278.287 388.437 279.586 387.133 281.189 387.133H332.254C333.857 387.133 335.157 388.437 335.157 390.048C335.157 391.658 333.857 392.963 332.254 392.963Z" stroke="#333333" stroke-width="1.5"/>
<path d="M149.791 503.084H440.876" stroke="#333333" stroke-width="1.5"/>
<path d="M365.285 479.984H423.198" stroke="#333333" stroke-width="1.5" stroke-linecap="square"/>
<path d="M365.285 486.414H423.198" stroke="#333333" stroke-width="1.5" stroke-linecap="square"/>
<path fill-rule="evenodd" clip-rule="evenodd" d="M175.758 430.974H232.743V425.982H175.758V430.974Z" fill="white"/>
<path fill-rule="evenodd" clip-rule="evenodd" d="M175.758 430.974H232.743V425.982H175.758V430.974Z" stroke="#333333" stroke-width="1.5"/>
<path fill-rule="evenodd" clip-rule="evenodd" d="M168.893 475.11H239.609V470.119H168.893V475.11Z" fill="white"/>
<path fill-rule="evenodd" clip-rule="evenodd" d="M168.893 475.11H239.609V470.119H168.893V475.11Z" stroke="#333333" stroke-width="1.5"/>
<path fill-rule="evenodd" clip-rule="evenodd" d="M180.503 389.317L162.215 503.076H167.615L185.903 389.317H180.503Z" fill="white"/>
<path fill-rule="evenodd" clip-rule="evenodd" d="M180.503 389.317L162.215 503.076H167.615L185.903 389.317H180.503Z" stroke="#333333" stroke-width="1.5"/>
<path d="M163.229 496.899H168.55" stroke="#333333" stroke-width="1.5"/>
<path fill-rule="evenodd" clip-rule="evenodd" d="M222.957 389.317L241.245 503.076H246.645L228.358 389.317H222.957Z" fill="white"/>
<path fill-rule="evenodd" clip-rule="evenodd" d="M228.358 389.316L246.646 503.076H241.246L222.957 389.316H228.358Z" stroke="#333333" stroke-width="1.5"/>
<path d="M245.631 496.899H240.311" stroke="#333333" stroke-width="1.5"/>
<path d="M204.518 370.703C214.618 370.703 222.552 371.337 227.354 371.856C229.561 372.095 231.244 373.973 231.244 376.222V383.079C231.243 385.51 229.282 387.47 226.877 387.47H181.625C179.22 387.47 177.26 385.51 177.259 383.079V376.244C177.259 373.989 178.948 372.11 181.163 371.875C186.102 371.352 194.297 370.703 204.518 370.703Z" fill="#FFE600" stroke="white" stroke-width="3"/>
<path fill-rule="evenodd" clip-rule="evenodd" d="M226.878 388.97H181.625C178.385 388.97 175.759 386.332 175.759 383.078V376.244C175.759 373.228 178.02 370.7 181.004 370.383C185.986 369.856 194.234 369.203 204.518 369.203C214.68 369.203 222.669 369.842 227.516 370.365C230.493 370.687 232.744 373.216 232.744 376.223V383.078C232.744 386.332 230.117 388.97 226.878 388.97Z" stroke="#333333" stroke-width="1.5"/>
<path fill-rule="evenodd" clip-rule="evenodd" d="M229.841 392.963H178.776C177.173 392.963 175.874 391.658 175.874 390.048C175.874 388.437 177.173 387.133 178.776 387.133H229.841C231.444 387.133 232.744 388.437 232.744 390.048C232.744 391.658 231.444 392.963 229.841 392.963" fill="white"/>
<path fill-rule="evenodd" clip-rule="evenodd" d="M229.841 392.963H178.776C177.173 392.963 175.874 391.658 175.874 390.048C175.874 388.437 177.173 387.133 178.776 387.133H229.841C231.444 387.133 232.744 388.437 232.744 390.048C232.744 391.658 231.444 392.963 229.841 392.963Z" stroke="#333333" stroke-width="1.5"/>
<path fill-rule="evenodd" clip-rule="evenodd" d="M298.681 137.252C298.043 136.764 297.067 136.234 296.092 136.538C294.433 137.055 294.433 141.653 295.291 143.721C296.149 145.79 298.552 147.399 299.354 147.399" fill="white"/>
<path fill-rule="evenodd" clip-rule="evenodd" d="M332.285 137.252C332.873 136.764 333.772 136.234 334.671 136.538C336.2 137.055 336.2 141.653 335.409 143.721C334.618 145.79 332.404 147.399 331.666 147.399" fill="white"/>
<path d="M332.285 137.252C332.873 136.764 333.772 136.234 334.671 136.538C336.2 137.055 336.2 141.653 335.409 143.721C334.618 145.79 332.404 147.399 331.666 147.399" stroke="#333333" stroke-width="1.5"/>
<path d="M298.681 137.252C298.043 136.764 297.067 136.234 296.092 136.538C294.433 137.055 294.433 141.653 295.291 143.721C296.149 145.79 298.552 147.399 299.354 147.399" stroke="#333333" stroke-width="1.5"/>
<path fill-rule="evenodd" clip-rule="evenodd" d="M298.398 134.678L299.277 148.234C299.487 151.072 300.621 153.763 302.516 155.881C306.126 159.919 312.194 166.096 315.515 166.096C318.824 166.096 324.851 159.968 328.462 155.929C330.384 153.782 331.52 151.045 331.706 148.166L332.506 134.678C332.506 134.678 333.633 114.412 315.407 114.412C297.181 114.412 298.398 134.678 298.398 134.678" fill="white"/>
<path fill-rule="evenodd" clip-rule="evenodd" d="M298.398 134.678L299.277 148.234C299.487 151.072 300.621 153.763 302.516 155.881C306.126 159.919 312.194 166.096 315.515 166.096C318.824 166.096 324.851 159.968 328.462 155.929C330.384 153.782 331.52 151.045 331.706 148.166L332.506 134.678C332.506 134.678 333.633 114.412 315.407 114.412C297.181 114.412 298.398 134.678 298.398 134.678Z" stroke="#333333" stroke-width="1.5"/>
<path fill-rule="evenodd" clip-rule="evenodd" d="M299.828 113.403C293.155 119.696 291.969 131.462 292.348 135.166C292.348 137.909 293.486 139.627 293.594 139.289C293.594 139.289 298.726 138.598 303.227 134.203C307.198 130.879 309.314 121.55 309.314 121.55C309.314 121.55 315.931 130.191 323.872 131.52C330.142 132.57 333.699 133.346 336.408 134.825C336.525 130.322 336.378 126.148 335.783 123.763C334.315 117.86 330.137 110.73 323.229 108.418C316.375 106.123 307.55 106.123 299.828 113.403Z" fill="#FFE600"/>
<mask id="mask0_2062_425" style="mask-type:luminance" maskUnits="userSpaceOnUse" x="292" y="107" width="45" height="33">
<path fill-rule="evenodd" clip-rule="evenodd" d="M299.828 113.403C293.155 119.696 291.969 131.462 292.348 135.166C292.348 137.909 293.486 139.627 293.594 139.289C293.594 139.289 298.726 138.598 303.227 134.203C307.198 130.879 309.314 121.55 309.314 121.55C309.314 121.55 315.931 130.191 323.872 131.52C330.142 132.57 333.699 133.346 336.408 134.825C336.525 130.322 336.378 126.148 335.783 123.763C334.315 117.86 330.137 110.73 323.229 108.418C316.375 106.123 307.55 106.123 299.828 113.403Z" fill="white"/>
</mask>
<g mask="url(#mask0_2062_425)">
</g>
<path d="M293.269 139.289C293.269 139.289 297.514 139.012 302.603 134.917C307.692 130.822 309.375 121.61 309.492 121.723C313.355 126.428 318.536 130.296 323.872 131.52C329.697 132.857 332.408 133.346 336.408 134.825" stroke="#333333" stroke-width="1.5"/>
<path style="mix-blend-mode:multiply" fill-rule="evenodd" clip-rule="evenodd" d="M293.269 139.289C293.269 139.289 297.514 139.012 302.603 134.917C307.692 130.822 309.375 121.61 309.492 121.723C313.355 126.428 318.536 130.296 323.872 131.52C329.697 132.857 332.408 133.346 336.408 134.825C336.408 134.825 327.96 135.762 320.741 133.304C313.521 130.846 310.623 126.046 310.623 126.046C310.623 126.046 308.918 133.178 305.589 135.719C302.259 138.26 293.269 139.289 293.269 139.289Z" fill="#EEEEEE"/>
<path d="M319.108 149.928V149.928C317.044 150.629 314.807 150.73 312.681 150.22L311.792 150.007" stroke="#333333" stroke-width="1.5"/>
<mask id="path-157-inside-1_2062_425" fill="white">
<path d="M306.305 132.17C310.346 132.17 313.622 135.46 313.622 139.519C313.621 143.576 310.346 146.866 306.305 146.866C302.266 146.866 298.991 143.576 298.991 139.519C298.991 135.46 302.266 132.17 306.305 132.17ZM324.594 132.17C328.635 132.17 331.91 135.46 331.91 139.519C331.91 143.576 328.634 146.866 324.594 146.866C320.554 146.866 317.279 143.576 317.279 139.519C317.279 135.46 320.554 132.17 324.594 132.17Z"/>
</mask>
<path d="M306.305 132.17C310.346 132.17 313.622 135.46 313.622 139.519C313.621 143.576 310.346 146.866 306.305 146.866C302.266 146.866 298.991 143.576 298.991 139.519C298.991 135.46 302.266 132.17 306.305 132.17ZM324.594 132.17C328.635 132.17 331.91 135.46 331.91 139.519C331.91 143.576 328.634 146.866 324.594 146.866C320.554 146.866 317.279 143.576 317.279 139.519C317.279 135.46 320.554 132.17 324.594 132.17Z" fill="white"/>
<path d="M306.305 132.17L306.305 129.17L306.305 129.17L306.305 132.17ZM313.622 139.519L316.622 139.519V139.519H313.622ZM306.305 146.866L306.305 149.866H306.305V146.866ZM298.991 139.519L295.991 139.519L295.991 139.519L298.991 139.519ZM324.594 132.17L324.594 129.17H324.594V132.17ZM331.91 139.519L334.91 139.519V139.519H331.91ZM324.594 146.866L324.594 149.866L324.594 149.866L324.594 146.866ZM317.279 139.519L314.279 139.519L314.279 139.519L317.279 139.519ZM306.305 132.17V135.17C308.676 135.17 310.622 137.104 310.622 139.519H313.622H316.622C316.622 133.815 312.015 129.17 306.305 129.17V132.17ZM313.622 139.519L310.622 139.518C310.621 141.932 308.677 143.866 306.305 143.866V146.866V149.866C312.015 149.866 316.621 145.221 316.622 139.519L313.622 139.519ZM306.305 146.866L306.305 143.866C303.935 143.866 301.991 141.932 301.991 139.518L298.991 139.519L295.991 139.519C295.991 145.22 300.596 149.866 306.305 149.866L306.305 146.866ZM298.991 139.519H301.991C301.991 137.104 303.935 135.17 306.305 135.17L306.305 132.17L306.305 129.17C300.596 129.17 295.991 133.816 295.991 139.519H298.991ZM324.594 132.17L324.594 135.17C326.965 135.17 328.91 137.104 328.91 139.519H331.91H334.91C334.91 133.816 330.304 129.17 324.594 129.17L324.594 132.17ZM331.91 139.519L328.91 139.518C328.91 141.932 326.965 143.866 324.594 143.866L324.594 146.866L324.594 149.866C330.304 149.866 334.909 145.221 334.91 139.519L331.91 139.519ZM324.594 146.866V143.866C322.224 143.866 320.279 141.932 320.279 139.518L317.279 139.519L314.279 139.519C314.279 145.221 318.885 149.866 324.594 149.866V146.866ZM317.279 139.519H320.279C320.279 137.104 322.224 135.17 324.594 135.17V132.17V129.17C318.885 129.17 314.279 133.816 314.279 139.519H317.279Z" fill="white" mask="url(#path-157-inside-1_2062_425)"/>
<path fill-rule="evenodd" clip-rule="evenodd" d="M313.621 139.518C313.621 143.576 310.346 146.866 306.306 146.866C302.266 146.866 298.991 143.576 298.991 139.518C298.991 135.46 302.266 132.17 306.306 132.17C310.346 132.17 313.621 135.46 313.621 139.518Z" stroke="#333333" stroke-width="1.5"/>
<path fill-rule="evenodd" clip-rule="evenodd" d="M331.909 139.518C331.909 143.576 328.634 146.866 324.594 146.866C320.554 146.866 317.279 143.576 317.279 139.518C317.279 135.46 320.554 132.17 324.594 132.17C328.634 132.17 331.909 135.46 331.909 139.518Z" stroke="#333333" stroke-width="1.5"/>
<path d="M313.622 139.518C313.622 139.518 315.519 136.762 317.279 139.518" stroke="#333333" stroke-width="1.5"/>
</svg>
