<svg width="16" height="14" viewBox="0 0 16 14" fill="none" xmlns="http://www.w3.org/2000/svg">
<path fill-rule="evenodd" clip-rule="evenodd" d="M0.75 0V3.18171C0.75 3.72793 0.976419 4.22058 1.33937 4.56859V14H15.1606V4.56859C15.5236 4.22058 15.75 3.72793 15.75 3.18171V0H0.75ZM13.9042 5.0906C13.8912 5.09087 13.8783 5.091 13.8653 5.091H10.7638V7.63643H5.7383V5.091H2.63472C2.62173 5.091 2.60877 5.09087 2.59584 5.0906V12.7271H13.9042V5.0906ZM2.00648 1.27286H5.7383V3.81814H2.63472C2.28775 3.81814 2.00648 3.5332 2.00648 3.18171V1.27286ZM6.99478 1.27286H9.50732V6.36357H6.99478V1.27286ZM10.7638 3.81814V1.27286H14.4935V3.18171C14.4935 3.5332 14.2122 3.81814 13.8653 3.81814H10.7638Z" fill="black" fill-opacity="0.9"/>
</svg>
