<svg width="11" height="10" viewBox="0 0 11 10" fill="none" xmlns="http://www.w3.org/2000/svg">
<path d="M5.875 0C8.63621 0.000106191 10.875 2.23877 10.875 5C10.875 7.76125 8.63623 9.99989 5.875 10C3.11368 10 0.875 7.76132 0.875 5C0.875026 2.23871 3.1137 0 5.875 0ZM5.875 1.10547C3.72389 1.10547 1.97952 2.84889 1.97949 5C1.97949 7.15113 3.72387 8.89453 5.875 8.89453C8.02604 8.89443 9.76953 7.15106 9.76953 5C9.76951 2.84896 8.02602 1.10557 5.875 1.10547ZM6.4248 6.65723H6.97559V7.76172H4.77344V6.65723H5.32031V5.00195H5.03711V3.89746H6.4248V6.65723ZM5.87207 2.23438C6.17604 2.23438 6.42284 2.48119 6.42285 2.78516C6.42285 3.08913 6.17604 3.33594 5.87207 3.33594C5.56826 3.33574 5.32227 3.08901 5.32227 2.78516C5.32228 2.48131 5.56827 2.23457 5.87207 2.23438Z" fill="#BFBFBF"/>
</svg>
