<svg width="16" height="12" viewBox="0 0 16 12" fill="none" xmlns="http://www.w3.org/2000/svg">
<path d="M11.084 4.00066L6.3674 8.71774L5.66023 8.0105L10.3768 3.29342L11.084 4.00066Z" fill="#2C2C2C"/>
<path d="M7.37419 4.00087C7.37419 4.55326 6.92644 5.00106 6.37411 5.00106C5.82178 5.00106 5.37403 4.55326 5.37403 4.00087C5.37403 3.44848 5.82178 3.00068 6.37411 3.00068C6.92644 3.00068 7.37419 3.44848 7.37419 4.00087Z" fill="#2C2C2C"/>
<path d="M10.3758 9.01069C10.9282 9.01069 11.3759 8.56289 11.3759 8.0105C11.3759 7.45811 10.9282 7.01032 10.3758 7.01032C9.82349 7.01032 9.37574 7.45811 9.37574 8.0105C9.37574 8.56289 9.82349 9.01069 10.3758 9.01069Z" fill="#2C2C2C"/>
<path fill-rule="evenodd" clip-rule="evenodd" d="M15.375 7.50028H15.875V11.5H0.875V7.50028H1.37504C2.20353 7.50028 2.87516 6.82858 2.87516 6C2.87516 5.17142 2.20353 4.49972 1.37504 4.49972H0.875V0.5H15.875V4.49972H15.375C14.5465 4.49972 13.8748 5.17142 13.8748 6C13.8748 6.82858 14.5465 7.50028 15.375 7.50028ZM12.8748 6C12.8748 4.79029 13.7337 3.78123 14.8749 3.54955V1.50019H1.87508V3.54955C3.01629 3.78123 3.87523 4.79029 3.87523 6C3.87523 7.20971 3.01629 8.21877 1.87508 8.45045V10.4998H14.8749V8.45045C13.7337 8.21877 12.8748 7.20971 12.8748 6Z" fill="#2C2C2C"/>
</svg>
